<?xml version="1.0" encoding="UTF-8"?>
<svg width="315px" height="227px" viewBox="0 0 315 227" version="1.1" xmlns="http://www.w3.org/2000/svg" xmlns:xlink="http://www.w3.org/1999/xlink">
    <title>4.1. Illustrations/Interface-app/SL Club/ClubOnMobile</title>
    <defs>
        <rect id="path-1" x="0" y="0" width="90" height="137" rx="7"></rect>
        <rect id="path-3" x="0" y="0" width="81" height="124" rx="7"></rect>
    </defs>
    <g id="4.1.-Illustrations/Interface-app/SL-Club/ClubOnMobile" stroke="none" stroke-width="1" fill="none" fill-rule="evenodd">
        <path d="M67.5666667,80 C75.5619825,80 82.6441551,83.9096312 87.0057028,89.9214122 C91.0434,86.8338258 96.0908769,85 101.566667,85 C110.451099,85 118.208004,89.8275178 122.357357,97.0025288 L122.566667,97 C135.821501,97 146.566667,107.745166 146.566667,121 C146.566667,133.238515 137.406107,143.337467 125.567647,144.814197 L125.566667,145 L43.5666667,145 C30.3118327,145 19.5666667,134.254834 19.5666667,121 C19.5666667,107.745166 30.3118327,97 43.5666667,97 C43.9123716,97 44.2563694,97.0073093 44.5985139,97.0217818 C47.5857405,87.1704807 56.7388258,80 67.5666667,80 Z M211.566667,15 C219.561983,15 226.644155,18.9096312 231.005703,24.9214122 C235.0434,21.8338258 240.090877,20 245.566667,20 C254.451099,20 262.208004,24.8275178 266.357357,32.0025288 L266.566667,32 C279.821501,32 290.566667,42.745166 290.566667,56 C290.566667,68.2385153 281.406107,78.3374672 269.567647,79.8141965 L269.566667,80 L187.566667,80 C174.311833,80 163.566667,69.254834 163.566667,56 C163.566667,42.745166 174.311833,32 187.566667,32 C187.912372,32 188.256369,32.0073093 188.598514,32.0217818 C191.58574,22.1704807 200.738826,15 211.566667,15 Z" id="Clouds" fill="#DFF3FE"></path>
        <path d="M225.00779,189.00134 L226.99221,189.00134 L226.99221,189.00134 L228.964841,189.011996 L228.964841,189.011996 L230.920933,189.03315 C231.570097,189.041932 232.216339,189.052437 232.859496,189.064637 L234.779541,189.106293 C235.416361,189.121855 236.049929,189.139084 236.680082,189.157953 L238.560129,189.219453 C238.871708,189.230513 239.182391,189.241977 239.492159,189.253841 L241.339613,189.32979 L241.339613,189.32979 L243.164103,189.415167 L243.164103,189.415167 L244.964641,189.509807 L244.964641,189.509807 L246.740238,189.613544 C247.034037,189.631583 247.326756,189.649994 247.618375,189.668774 L249.354708,189.78585 L249.354708,189.78585 L251.06363,189.911612 L251.06363,189.911612 L252.744152,190.045896 L252.744152,190.045896 L254.395287,190.188537 C254.667972,190.212997 254.939391,190.237799 255.209525,190.262939 L256.814725,190.417806 L256.814725,190.417806 L258.388066,190.580619 C258.64758,190.608407 258.905725,190.63652 259.162481,190.664953 L260.686182,190.839374 C261.188416,190.898779 261.684928,190.95944 262.175554,191.021329 L263.629608,191.210652 L263.629608,191.210652 L265.047357,191.407179 L265.047357,191.407179 L266.427812,191.610745 L266.427812,191.610745 L267.769985,191.821185 C267.990435,191.856823 268.20925,191.892739 268.426407,191.928932 L269.709304,192.149376 L269.709304,192.149376 L270.951448,192.376282 C271.969313,192.568018 272.943698,192.766314 273.872029,192.970741 L274.963756,193.21897 L274.963756,193.21897 L276.010283,193.47292 C282.322467,195.056248 286,196.956546 286,199 C286,201.043454 282.322467,202.943752 276.010283,204.52708 L274.963756,204.78103 L274.963756,204.78103 L273.872029,205.029259 C272.943698,205.233686 271.969313,205.431982 270.951448,205.623718 L269.709304,205.850624 L269.709304,205.850624 L268.426407,206.071068 L268.426407,206.071068 L267.103746,206.284884 C266.880043,206.319959 266.654725,206.35475 266.427812,206.389255 L265.047357,206.592821 L265.047357,206.592821 L263.629608,206.789348 L263.629608,206.789348 L262.175554,206.978671 C261.684928,207.04056 261.188416,207.101221 260.686182,207.160626 L259.162481,207.335047 C258.905725,207.36348 258.64758,207.391593 258.388066,207.419381 L256.814725,207.582194 L256.814725,207.582194 L255.209525,207.737061 L255.209525,207.737061 L253.573454,207.883818 C253.298259,207.907593 253.021817,207.931023 252.744152,207.954104 L251.06363,208.088388 L251.06363,208.088388 L249.354708,208.21415 L249.354708,208.21415 L247.618375,208.331226 L247.618375,208.331226 L245.855618,208.439451 C245.559679,208.456742 245.262679,208.473657 244.964641,208.490193 L243.164103,208.584833 L243.164103,208.584833 L241.339613,208.67021 L241.339613,208.67021 L239.492159,208.746159 L239.492159,208.746159 L237.622729,208.812517 C236.996033,208.833019 236.365839,208.851895 235.732312,208.869117 L233.821895,208.915796 C233.181866,208.929683 232.538668,208.94189 231.892467,208.952388 L229.945017,208.978729 C229.618994,208.982256 229.292263,208.985349 228.964841,208.988004 L226.99221,208.99866 C226.662114,208.999552 226.331371,209 226,209 L224.019469,208.994655 C223.69069,208.992878 223.36258,208.99066 223.035159,208.988004 L221.079067,208.96685 C220.429903,208.958068 219.783661,208.947563 219.140504,208.935363 L217.220459,208.893707 C216.583639,208.878145 215.950071,208.860916 215.319918,208.842047 L213.439871,208.780547 C213.128292,208.769487 212.817609,208.758023 212.507841,208.746159 L210.660387,208.67021 L210.660387,208.67021 L208.835897,208.584833 L208.835897,208.584833 L207.035359,208.490193 L207.035359,208.490193 L205.259762,208.386456 C204.965963,208.368417 204.673244,208.350006 204.381625,208.331226 L202.645292,208.21415 L202.645292,208.21415 L200.93637,208.088388 L200.93637,208.088388 L199.255848,207.954104 L199.255848,207.954104 L197.604713,207.811463 C197.332028,207.787003 197.060609,207.762201 196.790475,207.737061 L195.185275,207.582194 L195.185275,207.582194 L193.611934,207.419381 C193.35242,207.391593 193.094275,207.36348 192.837519,207.335047 L191.313818,207.160626 C190.811584,207.101221 190.315072,207.04056 189.824446,206.978671 L188.370392,206.789348 L188.370392,206.789348 L186.952643,206.592821 L186.952643,206.592821 L185.572188,206.389255 L185.572188,206.389255 L184.230015,206.178815 C184.009565,206.143177 183.79075,206.107261 183.573593,206.071068 L182.290696,205.850624 L182.290696,205.850624 L181.048552,205.623718 C180.030687,205.431982 179.056302,205.233686 178.127971,205.029259 L177.036244,204.78103 L177.036244,204.78103 L175.989717,204.52708 C169.677533,202.943752 166,201.043454 166,199 C166,196.956546 169.677533,195.056248 175.989717,193.47292 L177.036244,193.21897 L177.036244,193.21897 L178.127971,192.970741 C179.056302,192.766314 180.030687,192.568018 181.048552,192.376282 L182.290696,192.149376 L182.290696,192.149376 L183.573593,191.928932 L183.573593,191.928932 L184.896254,191.715116 C185.119957,191.680041 185.345275,191.64525 185.572188,191.610745 L186.952643,191.407179 L186.952643,191.407179 L188.370392,191.210652 L188.370392,191.210652 L189.824446,191.021329 C190.315072,190.95944 190.811584,190.898779 191.313818,190.839374 L192.837519,190.664953 C193.094275,190.63652 193.35242,190.608407 193.611934,190.580619 L195.185275,190.417806 L195.185275,190.417806 L196.790475,190.262939 L196.790475,190.262939 L198.426546,190.116182 C198.701741,190.092407 198.978183,190.068977 199.255848,190.045896 L200.93637,189.911612 L200.93637,189.911612 L202.645292,189.78585 L202.645292,189.78585 L204.381625,189.668774 L204.381625,189.668774 L206.144382,189.560549 C206.440321,189.543258 206.737321,189.526343 207.035359,189.509807 L208.835897,189.415167 L208.835897,189.415167 L210.660387,189.32979 L210.660387,189.32979 L212.507841,189.253841 L212.507841,189.253841 L214.377271,189.187483 C215.003967,189.166981 215.634161,189.148105 216.267688,189.130883 L218.178105,189.084204 C218.818134,189.070317 219.461332,189.05811 220.107533,189.047612 L222.054983,189.021271 C222.381006,189.017744 222.707737,189.014651 223.035159,189.011996 L225.00779,189.00134 L225.00779,189.00134 Z M125.453583,171.609597 L128.566667,171.6 L128.566667,171.6 L130.646225,171.604276 C130.991442,171.605698 131.335958,171.607472 131.67975,171.609597 L133.733646,171.62652 L133.733646,171.62652 L135.769137,171.65171 L135.769137,171.65171 L137.785185,171.685035 C138.119515,171.691259 138.452992,171.697818 138.785594,171.704706 L140.770532,171.749987 L140.770532,171.749987 L142.733434,171.803073 L142.733434,171.803073 L144.67326,171.863832 L144.67326,171.863832 L146.588975,171.932134 L146.588975,171.932134 L148.479539,172.007845 L148.479539,172.007845 L150.343916,172.090836 L150.343916,172.090836 L152.181068,172.180972 L152.181068,172.180972 L153.989956,172.278124 L153.989956,172.278124 L155.769544,172.382159 L155.769544,172.382159 L157.518794,172.492945 L157.518794,172.492945 L159.236667,172.610351 L159.236667,172.610351 L160.922127,172.734245 L160.922127,172.734245 L162.574136,172.864495 L162.574136,172.864495 L164.191656,173.000969 L164.191656,173.000969 L165.773648,173.143536 L165.773648,173.143536 L167.319077,173.292063 C167.573544,173.317307 167.826444,173.342794 168.077755,173.368521 L169.566392,173.525743 L169.566392,173.525743 L171.015869,173.688596 L171.015869,173.688596 L172.425151,173.856948 L172.425151,173.856948 L173.793199,174.030669 L173.793199,174.030669 L175.118975,174.209625 L175.118975,174.209625 L176.401442,174.393686 L176.401442,174.393686 L177.639562,174.582719 L177.639562,174.582719 L178.832297,174.776593 C180.001994,174.972843 181.102058,175.176157 182.127819,175.385941 L183.128639,175.597861 C188.495027,176.775037 191.566667,178.141968 191.566667,179.6 C191.566667,181.058032 188.495027,182.424963 183.128639,183.602139 L182.127819,183.814059 C181.102058,184.023843 180.001994,184.227157 178.832297,184.423407 L177.639562,184.617281 L177.639562,184.617281 L176.401442,184.806314 L176.401442,184.806314 L175.118975,184.990375 L175.118975,184.990375 L173.793199,185.169331 L173.793199,185.169331 L172.425151,185.343052 L172.425151,185.343052 L171.015869,185.511404 L171.015869,185.511404 L169.566392,185.674257 L169.566392,185.674257 L168.077755,185.831479 L168.077755,185.831479 L166.550998,185.982937 L166.550998,185.982937 L164.987158,186.128501 L164.987158,186.128501 L163.387272,186.268038 L163.387272,186.268038 L161.752378,186.401416 L161.752378,186.401416 L160.083514,186.528504 L160.083514,186.528504 L158.381718,186.649171 L158.381718,186.649171 L156.648026,186.763283 L156.648026,186.763283 L154.883478,186.870711 L154.883478,186.870711 L153.08911,186.97132 C152.787621,186.987513 152.484933,187.003417 152.181068,187.019028 L150.343916,187.109164 L150.343916,187.109164 L148.479539,187.192155 L148.479539,187.192155 L146.588975,187.267866 L146.588975,187.267866 L144.67326,187.336168 L144.67326,187.336168 L142.733434,187.396927 L142.733434,187.396927 L140.770532,187.450013 L140.770532,187.450013 L138.785594,187.495294 L138.785594,187.495294 L136.779656,187.532636 C136.443641,187.538192 136.106794,187.54341 135.769137,187.54829 L133.733646,187.57348 L133.733646,187.57348 L131.67975,187.590403 L131.67975,187.590403 L129.608487,187.598928 L129.608487,187.598928 L127.524846,187.598928 L127.524846,187.598928 L125.453583,187.590403 L125.453583,187.590403 L123.399687,187.57348 L123.399687,187.57348 L121.364196,187.54829 L121.364196,187.54829 L119.348148,187.514965 C119.013818,187.508741 118.680341,187.502182 118.347739,187.495294 L116.362801,187.450013 L116.362801,187.450013 L114.3999,187.396927 L114.3999,187.396927 L112.460073,187.336168 L112.460073,187.336168 L110.544359,187.267866 L110.544359,187.267866 L108.653794,187.192155 L108.653794,187.192155 L106.789417,187.109164 L106.789417,187.109164 L104.952266,187.019028 L104.952266,187.019028 L103.143377,186.921876 L103.143377,186.921876 L101.363789,186.817841 L101.363789,186.817841 L99.6145395,186.707055 L99.6145395,186.707055 L97.8966659,186.589649 L97.8966659,186.589649 L96.2112059,186.465755 L96.2112059,186.465755 L94.5591974,186.335505 L94.5591974,186.335505 L92.9416778,186.199031 L92.9416778,186.199031 L91.3596849,186.056464 L91.3596849,186.056464 L89.8142564,185.907937 C89.5597897,185.882693 89.3068897,185.857206 89.0555781,185.831479 L87.5669417,185.674257 L87.5669417,185.674257 L86.1174639,185.511404 L86.1174639,185.511404 L84.7081824,185.343052 L84.7081824,185.343052 L83.3401347,185.169331 L83.3401347,185.169331 L82.0143586,184.990375 L82.0143586,184.990375 L80.7318917,184.806314 L80.7318917,184.806314 L79.4937718,184.617281 L79.4937718,184.617281 L78.3010364,184.423407 C77.1313392,184.227157 76.0312753,184.023843 75.0055144,183.814059 L74.0046941,183.602139 L74.0046941,183.602139 L73.0544467,183.386038 C68.2772691,182.258939 65.5666667,180.969666 65.5666667,179.6 C65.5666667,178.230334 68.2772691,176.941061 73.0544467,175.813962 L74.0046941,175.597861 L74.0046941,175.597861 L75.0055144,175.385941 C76.0312753,175.176157 77.1313392,174.972843 78.3010364,174.776593 L79.4937718,174.582719 L79.4937718,174.582719 L80.7318917,174.393686 L80.7318917,174.393686 L82.0143586,174.209625 L82.0143586,174.209625 L83.3401347,174.030669 L83.3401347,174.030669 L84.7081824,173.856948 L84.7081824,173.856948 L86.1174639,173.688596 L86.1174639,173.688596 L87.5669417,173.525743 L87.5669417,173.525743 L89.0555781,173.368521 L89.0555781,173.368521 L90.5823353,173.217063 C90.8399139,173.192307 91.0990376,173.167797 91.3596849,173.143536 L92.9416778,173.000969 L92.9416778,173.000969 L94.5591974,172.864495 L94.5591974,172.864495 L96.2112059,172.734245 L96.2112059,172.734245 L97.8966659,172.610351 L97.8966659,172.610351 L99.6145395,172.492945 L99.6145395,172.492945 L101.363789,172.382159 L101.363789,172.382159 L103.143377,172.278124 L103.143377,172.278124 L104.952266,172.180972 L104.952266,172.180972 L106.789417,172.090836 L106.789417,172.090836 L108.653794,172.007845 L108.653794,172.007845 L110.544359,171.932134 L110.544359,171.932134 L112.460073,171.863832 L112.460073,171.863832 L114.3999,171.803073 L114.3999,171.803073 L116.362801,171.749987 L116.362801,171.749987 L118.347739,171.704706 L118.347739,171.704706 L120.353677,171.667364 C120.689692,171.661808 121.026539,171.65659 121.364196,171.65171 L123.399687,171.62652 L123.399687,171.62652 L125.453583,171.609597 L125.453583,171.609597 Z" id="Shadows" fill="#002451" opacity="0.0352725074"></path>
        <g id="Calendar" transform="translate(130.000000, 30.000000)">
            <rect id="Base" fill="#647B96" x="0" y="0" width="100" height="148" rx="12"></rect>
            <g id="Top---Primary-Color" transform="translate(5.000000, 5.000000)">
                <mask id="mask-2" fill="white">
                    <use xlink:href="#path-1"></use>
                </mask>
                <use id="Mask" fill="#DFF3FE" xlink:href="#path-1"></use>
                <polygon fill="#80CFFE" opacity="0.505254836" mask="url(#mask-2)" points="0 0 90 0 0 137"></polygon>
            </g>
        </g>
        <g id="Calendar-Copy" transform="translate(78.000000, 44.000000)">
            <rect id="Base" fill="#647B96" x="0" y="0" width="91" height="134" rx="12"></rect>
            <g id="Top---Primary-Color" transform="translate(5.000000, 5.000000)">
                <mask id="mask-4" fill="white">
                    <use xlink:href="#path-3"></use>
                </mask>
                <use id="Mask" fill="#DFF3FE" xlink:href="#path-3"></use>
                <polygon fill="#80CFFE" opacity="0.505254836" mask="url(#mask-4)" points="0 0 81 0 0 124"></polygon>
            </g>
        </g>
        <g id="Triangle" transform="translate(178.000000, 107.000000)">
            <path d="M60.0444187,8.40919552 L96.3686741,75.2715418 C99.5324143,81.0950634 97.3762353,88.3806786 91.5527137,91.5444187 C89.7944503,92.4996291 87.8252344,93 85.8242554,93 L13.1757446,93 C6.5483276,93 1.17574459,87.627417 1.17574459,81 C1.17574459,78.999021 1.67611551,77.0298051 2.63132587,75.2715418 L38.9555813,8.40919552 C42.1193214,2.58567386 49.4049366,0.429494916 55.2284582,3.59323505 C57.2652111,4.69974022 58.9379135,6.37244264 60.0444187,8.40919552 Z" id="Rectangle" fill="#EB6500"></path>
            <g id="2.-Icons/CheckboxCheck" fill="#FFFFFF">
                <path d="M56.4555076,12.2756452 L89.8300528,75.687281 C90.4347295,76.8361668 90.750707,78.1149565 90.750707,79.4132525 C90.750707,83.8315305 87.168985,87.4132525 82.750707,87.4132525 L16.0016167,87.4132525 C14.7033207,87.4132525 13.424531,87.097275 12.2756452,86.4925983 C8.36583053,84.434801 6.8644737,79.5970957 8.92227092,75.687281 L42.2968161,12.2756452 C43.0499883,10.844618 44.2191631,9.67544315 45.6501904,8.92227092 C49.5600051,6.8644737 54.3977104,8.36583053 56.4555076,12.2756452 Z M49.3761618,16.0016167 L16.0016167,79.4132525 L82.750707,79.4132525 L49.3761618,16.0016167 Z M49.3761618,65.4132525 C51.5853008,65.4132525 53.3761618,67.2041135 53.3761618,69.4132525 C53.3761618,71.6223915 51.5853008,73.4132525 49.3761618,73.4132525 C47.1670228,73.4132525 45.3761618,71.6223915 45.3761618,69.4132525 C45.3761618,67.2041135 47.1670228,65.4132525 49.3761618,65.4132525 Z M49.3761618,35.4132525 C51.4275052,35.4132525 53.1181905,36.9574132 53.3492509,38.946768 L53.3761618,39.4132525 L53.3761618,57.4132525 C53.3761618,59.6223915 51.5853008,61.4132525 49.3761618,61.4132525 C47.3248185,61.4132525 45.6341332,59.8690917 45.4030728,57.879737 L45.3761618,57.4132525 L45.3761618,39.4132525 C45.3761618,37.2041135 47.1670228,35.4132525 49.3761618,35.4132525 Z" id="Triangle"></path>
            </g>
        </g>
    </g>
</svg>