<?xml version="1.0" encoding="UTF-8"?>
<svg width="32px" height="32px" viewBox="0 0 32 32" version="1.1" xmlns="http://www.w3.org/2000/svg" xmlns:xlink="http://www.w3.org/1999/xlink">
    <title>Avatars/PlaceholderOrganisation</title>
    <g id="Avatars/PlaceholderOrganisation" stroke="none" stroke-width="1" fill="none" fill-rule="evenodd">
        <path d="M0,16 C0,24.832 7.168,32 16,32 C24.832,32 32,24.832 32,16 C32,7.168 24.832,0 16,0 C7.168,0 0,7.168 0,16 Z" id="Background"></path>
        <path d="M9,9 L15,9 C16.1045695,9 17,9.8954305 17,11 C17,20 17,24.8333333 17,25.5 C17,26.5 16.4999832,27.5 15,27.5 C8.5,27.5 7,25 7,23 C7,21.6666667 7,17.6666667 7,11 C7,9.8954305 7.8954305,9 9,9 Z M22,5 C23.1045695,5 24,5.8954305 24,7 C24,17 24,22.3333333 24,23 C24,24 23.5,27 19.5,27 C18.5000105,27 18,26.5 18,25.5 C18,24.8333333 18,20 18,11 C18,9.40231912 16.75108,8.09633912 15.1762728,8.00509269 L15,8 L13,8 L13,7 C13,5.8954305 13.8954305,5 15,5 L22,5 Z M15,22 L13,22 L13,25 L15,25 L15,22 Z M11,22 L9,22 L9,23 C9,24.1045695 9.8954305,25 11,25 L11,25 L11,25 L11,22 Z M22,22 L20,22 L20,25 C21.1045695,25 22,24.1045695 22,23 L22,22 L22,22 Z M11,17 L9,17 L9,20 L11,20 L11,17 Z M15,17 L13,17 L13,20 L15,20 L15,17 Z M22,17 L20,17 L20,20 L22,20 L22,17 Z M11,12 L9,12 L9,15 L11,15 L11,12 Z M15,12 L13,12 L13,15 L15,15 L15,12 Z M22,12 L20,12 L20,15 L22,15 L22,12 Z M22,7 L20,7 L20,10 L22,10 L22,7 Z" id="Office" fill="#96A5B8"></path>
    </g>
</svg>