<?xml version="1.0" encoding="UTF-8"?>
<svg width="315px" height="227px" viewBox="0 0 315 227" version="1.1" xmlns="http://www.w3.org/2000/svg" xmlns:xlink="http://www.w3.org/1999/xlink">
    <title>4.1. Illustrations/Interface-app/SL Club/NotFound-Page</title>
    <g id="4.1.-Illustrations/Interface-app/SL-Club/NotFound-Page" stroke="none" stroke-width="1" fill="none" fill-rule="evenodd">
        <path d="M233.93517,194.137255 L235.158202,194.145708 L236.370978,194.162488 L237.572887,194.187466 L239.354033,194.240015 L240.526092,194.284913 L241.685139,194.33755 L242.83056,194.397796 L244.521805,194.502147 L245.630483,194.580844 L246.723392,194.666693 L247.799919,194.759563 L248.85945,194.859323 L250.415542,195.021596 L251.429905,195.138011 L252.425129,195.260858 L253.880738,195.456906 L254.825433,195.595264 L256.202376,195.813965 L257.529361,196.045671 L259.011613,196.331843 L260.02519,196.546333 L260.80803,196.723778 L261.565296,196.906284 L262.296376,197.093721 L263.000658,197.285957 L263.677529,197.482863 L264.005493,197.583026 L264.640098,197.78669 L264.946585,197.890159 L265.680644,198.153474 L266.367804,198.423217 L266.88296,198.643468 C267.132741,198.754559 267.370749,198.867083 267.59664,198.980966 L268.032162,199.210522 C269.63895,200.097265 270.52,201.061006 270.52,202.068628 C270.52,203.076249 269.63895,204.039991 268.032162,204.926734 L267.59664,205.156289 C267.370749,205.270172 267.132741,205.382696 266.88296,205.493787 L266.367804,205.714038 L265.821866,205.930339 L265.097091,206.194959 L264.326375,206.452948 L264.005493,206.554229 L264.005493,206.554229 L263.000658,206.851298 L262.296376,207.043535 L261.565296,207.230971 L260.80803,207.413478 L260.02519,207.590923 L258.804322,207.847315 L257.529361,208.091584 L256.202376,208.32329 L255.289837,208.470563 L254.355708,208.611926 L252.915372,208.812602 L251.929948,208.938617 L250.925078,209.058264 L249.901374,209.171413 L248.85945,209.277933 L247.799919,209.377693 L246.178947,209.514373 L245.078077,209.596662 L243.961744,209.671734 L242.83056,209.739459 L241.685139,209.799705 L240.526092,209.852343 L239.354033,209.897241 L238.169575,209.934268 L236.370978,209.974767 L235.158202,209.991547 L233.93517,210 L232.70483,210 L231.493979,209.991673 L229.696722,209.963917 L227.924073,209.918221 L226.756969,209.878003 L225.602288,209.830128 L224.460625,209.774724 L223.332573,209.711918 L222.218728,209.641836 L220.575899,209.523348 L219.500172,209.435632 L217.917306,209.291286 L216.883412,209.186728 L215.867292,209.075654 L214.86954,208.958191 L213.890751,208.834468 L212.93152,208.704609 L211.99244,208.568743 L211.074107,208.426996 L210.177114,208.279494 L209.302057,208.126364 L208.44953,207.967734 L207.620127,207.803729 L206.814443,207.634478 L206.033073,207.460105 L205.276611,207.280739 L204.545652,207.096506 L203.840789,206.907533 L203.162618,206.713947 L202.196709,206.415194 L201.587868,206.210628 L201.0078,206.001893 C200.819305,205.931634 200.635705,205.860701 200.457098,205.789115 L199.936358,205.57242 L199.446174,205.351937 C197.309988,204.351424 196.12,203.239659 196.12,202.068628 C196.12,201.061006 197.00105,200.097265 198.607838,199.210522 L199.04336,198.980966 C199.269251,198.867083 199.507259,198.754559 199.75704,198.643468 L200.272196,198.423217 L200.818134,198.206917 L201.542909,197.942296 L202.313625,197.684307 L202.634507,197.583026 L202.634507,197.583026 L203.639342,197.285957 L204.343624,197.093721 L205.074704,196.906284 L205.83197,196.723778 L206.61481,196.546333 L207.628387,196.331843 L208.679769,196.12572 L209.110639,196.045671 L210.437624,195.813965 L211.350163,195.666692 L212.284292,195.52533 L213.724628,195.324654 L214.710052,195.198639 L215.714922,195.078991 L216.738626,194.965843 L217.78055,194.859323 L218.840081,194.759563 L220.461053,194.622883 L221.561923,194.540593 L222.678256,194.465521 L223.80944,194.397796 L224.954861,194.33755 L226.113908,194.284913 L227.285967,194.240015 L228.470425,194.202987 L230.269022,194.162488 L231.481798,194.145708 L232.70483,194.137255 L233.93517,194.137255 Z M154.250955,169.805773 L157.4,169.8 L157.4,169.8 L160.549045,169.805773 C162.11732,169.811531 163.676027,169.821574 165.224283,169.835802 L168.306598,169.869808 C169.329217,169.882984 170.346928,169.89799 171.359471,169.914797 L174.38133,169.97059 C174.882302,169.980779 175.381916,169.991411 175.880139,170.002482 L178.852533,170.074148 C179.345064,170.08696 179.836138,170.100205 180.325725,170.113877 L183.245117,170.201015 C183.728617,170.216384 184.210564,170.232174 184.690924,170.24838 L187.553779,170.350591 L187.553779,170.350591 L190.376978,170.462628 L190.376978,170.462628 L193.15895,170.584313 C193.619089,170.605388 194.077445,170.626857 194.533985,170.648718 L197.251171,170.784541 C197.700316,170.80795 198.14758,170.831742 198.592929,170.855915 L201.241793,171.005476 L201.241793,171.005476 L203.843144,171.163974 L203.843144,171.163974 L206.395412,171.331231 C208.922614,171.502808 211.373834,171.687255 213.742001,171.883774 L216.082221,172.084286 C218.008898,172.254683 219.876262,172.433277 221.680221,172.619604 L223.814276,172.84688 L223.814276,172.84688 L225.885891,173.081403 C242.54484,175.025775 252.8,177.677309 252.8,180.6 C252.8,183.522691 242.54484,186.174225 225.885891,188.118597 L223.814276,188.35312 L223.814276,188.35312 L221.680221,188.580396 C219.876262,188.766723 218.008898,188.945317 216.082221,189.115714 L213.742001,189.316226 C211.373834,189.512745 208.922614,189.697192 206.395412,189.868769 L203.843144,190.036026 L203.843144,190.036026 L201.241793,190.194524 L201.241793,190.194524 L198.592929,190.344085 L198.592929,190.344085 L195.898124,190.484532 C195.445249,190.507171 194.990525,190.529422 194.533985,190.551282 L191.773216,190.677725 C191.309543,190.698007 190.844119,190.71789 190.376978,190.737372 L187.553779,190.849409 L187.553779,190.849409 L184.690924,190.95162 L184.690924,190.95162 L181.789985,191.043827 C181.303409,191.058351 180.815311,191.072451 180.325725,191.086123 L177.370606,191.162991 C176.379786,191.186882 175.383274,191.209032 174.38133,191.22941 L171.359471,191.285203 C170.346928,191.30201 169.329217,191.317016 168.306598,191.330192 L165.224283,191.364198 C163.159942,191.383169 161.07702,191.3947 158.977613,191.398553 L157.4,191.4 C154.765602,191.4 152.156143,191.387912 149.575717,191.364198 L146.493402,191.330192 C145.470783,191.317016 144.453072,191.30201 143.440529,191.285203 L140.41867,191.22941 C139.917698,191.219221 139.418084,191.208589 138.919861,191.197518 L135.947467,191.125852 C135.454936,191.11304 134.963862,191.099795 134.474275,191.086123 L131.554883,190.998985 C131.071383,190.983616 130.589436,190.967826 130.109076,190.95162 L127.246221,190.849409 L127.246221,190.849409 L124.423022,190.737372 L124.423022,190.737372 L121.64105,190.615687 C121.180911,190.594612 120.722555,190.573143 120.266015,190.551282 L117.548829,190.415459 C117.099684,190.39205 116.65242,190.368258 116.207071,190.344085 L113.558207,190.194524 L113.558207,190.194524 L110.956856,190.036026 L110.956856,190.036026 L108.404588,189.868769 C105.877386,189.697192 103.426166,189.512745 101.057999,189.316226 L98.7177787,189.115714 C96.791102,188.945317 94.923738,188.766723 93.1197787,188.580396 L90.9857238,188.35312 L90.9857238,188.35312 L88.9141087,188.118597 C72.2551596,186.174225 62,183.522691 62,180.6 C62,177.677309 72.2551596,175.025775 88.9141087,173.081403 L90.9857238,172.84688 L90.9857238,172.84688 L93.1197787,172.619604 C94.923738,172.433277 96.791102,172.254683 98.7177787,172.084286 L101.057999,171.883774 C103.426166,171.687255 105.877386,171.502808 108.404588,171.331231 L110.956856,171.163974 L110.956856,171.163974 L113.558207,171.005476 L113.558207,171.005476 L116.207071,170.855915 L116.207071,170.855915 L118.901876,170.715468 C119.354751,170.692829 119.809475,170.670578 120.266015,170.648718 L123.026784,170.522275 C123.490457,170.501993 123.955881,170.48211 124.423022,170.462628 L127.246221,170.350591 L127.246221,170.350591 L130.109076,170.24838 L130.109076,170.24838 L133.010015,170.156173 C133.496591,170.141649 133.984689,170.127549 134.474275,170.113877 L137.429394,170.037009 C138.420214,170.013118 139.416726,169.990968 140.41867,169.97059 L143.440529,169.914797 C144.453072,169.89799 145.470783,169.882984 146.493402,169.869808 L149.575717,169.835802 C151.123973,169.821574 152.68268,169.811531 154.250955,169.805773 L154.250955,169.805773 Z" id="Shadows" fill="#002451" opacity="0.044124"></path>
        <path d="M67.5666667,71 C75.5619825,71 82.6441551,74.9096312 87.0057028,80.9214122 C91.0434,77.8338258 96.0908769,76 101.566667,76 C110.451099,76 118.208004,80.8275178 122.357357,88.0025288 L122.566667,88 C135.821501,88 146.566667,98.745166 146.566667,112 C146.566667,124.238515 137.406107,134.337467 125.567647,135.814197 L125.566667,136 L43.5666667,136 C30.3118327,136 19.5666667,125.254834 19.5666667,112 C19.5666667,98.745166 30.3118327,88 43.5666667,88 C43.9123716,88 44.2563694,88.0073093 44.5985139,88.0217818 C47.5857405,78.1704807 56.7388258,71 67.5666667,71 Z M212.566667,9 C220.561983,9 227.644155,12.9096312 232.005703,18.9214122 C236.0434,15.8338258 241.090877,14 246.566667,14 C255.451099,14 263.208004,18.8275178 267.357357,26.0025288 L267.566667,26 C280.821501,26 291.566667,36.745166 291.566667,50 C291.566667,62.2385153 282.406107,72.3374672 270.567647,73.8141965 L270.566667,74 L188.566667,74 C175.311833,74 164.566667,63.254834 164.566667,50 C164.566667,36.745166 175.311833,26 188.566667,26 C188.912372,26 189.256369,26.0073093 189.598514,26.0217818 C192.58574,16.1704807 201.738826,9 212.566667,9 Z" id="Clouds" fill="#DFF3FE"></path>
        <g id="Page" transform="translate(83.000000, 26.000000)">
            <rect id="Base" fill="#EFF9FE" x="0" y="0" width="149.210526" height="153.6" rx="12"></rect>
            <path d="M138,130 C140.209139,130 142,131.790861 142,134 C142,136.209139 140.209139,138 138,138 L83,138 C80.790861,138 79,136.209139 79,134 C79,131.790861 80.790861,130 83,130 L138,130 Z M130,115 C132.209139,115 134,116.790861 134,119 C134,121.209139 132.209139,123 130,123 L83,123 C80.790861,123 79,121.209139 79,119 C79,116.790861 80.790861,115 83,115 L130,115 Z M124,100 C126.209139,100 128,101.790861 128,104 C128,106.209139 126.209139,108 124,108 L83,108 C80.790861,108 79,106.209139 79,104 C79,101.790861 80.790861,100 83,100 L124,100 Z M121,85 C123.209139,85 125,86.790861 125,89 C125,91.209139 123.209139,93 121,93 L83,93 C80.790861,93 79,91.209139 79,89 C79,86.790861 80.790861,85 83,85 L121,85 Z M67,67 C69.209139,67 71,68.790861 71,71 C71,73.209139 69.209139,75 67,75 L20,75 C17.790861,75 16,73.209139 16,71 C16,68.790861 17.790861,67 20,67 L67,67 Z M67,52 C69.209139,52 71,53.790861 71,56 C71,58.209139 69.209139,60 67,60 L20,60 C17.790861,60 16,58.209139 16,56 C16,53.790861 17.790861,52 20,52 L67,52 Z M67,37 C69.209139,37 71,38.790861 71,41 C71,43.209139 69.209139,45 67,45 L20,45 C17.790861,45 16,43.209139 16,41 C16,38.790861 17.790861,37 20,37 L67,37 Z M67,22 C69.209139,22 71,23.790861 71,26 C71,28.209139 69.209139,30 67,30 L20,30 C17.790861,30 16,28.209139 16,26 C16,23.790861 17.790861,22 20,22 L67,22 Z" id="Text" fill-opacity="0.298322771" fill="#80CFFE"></path>
            <path d="M63.8,85 C67.7764502,85 71,88.2235498 71,92.2 L71,130.8 C71,134.77645 67.7764502,138 63.8,138 L23.2,138 C19.2235498,138 16,134.77645 16,130.8 L16,92.2 C16,88.2235498 19.2235498,85 23.2,85 L63.8,85 Z M126.8,21 C130.77645,21 134,24.2235498 134,28.2 L134,69.8 C134,73.7764502 130.77645,77 126.8,77 L86.2,77 C82.2235498,77 79,73.7764502 79,69.8 L79,28.2 C79,24.2235498 82.2235498,21 86.2,21 L126.8,21 Z" id="Images" fill="#80CFFE"></path>
        </g>
        <g id="RoundQuestion" transform="translate(179.000000, 103.000000)">
            <path d="M55,13 C78.1959595,13 97,31.8040405 97,55 C97,78.1959595 78.1959595,97 55,97 C31.8040405,97 13,78.1959595 13,55 C13,31.8040405 31.8040405,13 55,13 Z" id="Ball" fill="#FFFFFF"></path>
            <g id="2.-Icons/CheckboxCheck" fill="#EB6500">
                <path d="M55,9.16666667 C80.313051,9.16666667 100.833333,29.686949 100.833333,55 C100.833333,80.313051 80.313051,100.833333 55,100.833333 C29.686949,100.833333 9.16666667,80.313051 9.16666667,55 C9.16666667,29.686949 29.686949,9.16666667 55,9.16666667 Z M55,18.3333333 C34.7495592,18.3333333 18.3333333,34.7495592 18.3333333,55 C18.3333333,75.2504408 34.7495592,91.6666667 55,91.6666667 C75.2504408,91.6666667 91.6666667,75.2504408 91.6666667,55 C91.6666667,34.7495592 75.2504408,18.3333333 55,18.3333333 Z M55,71.0416667 C57.5313051,71.0416667 59.5833333,73.0936949 59.5833333,75.625 C59.5833333,78.1563051 57.5313051,80.2083333 55,80.2083333 C52.4686949,80.2083333 50.4166667,78.1563051 50.4166667,75.625 C50.4166667,73.0936949 52.4686949,71.0416667 55,71.0416667 Z M55,27.5 C64.4063051,27.5 71.0416667,34.1353616 71.0416667,43.5416667 C71.0416667,49.3746714 67.9276652,53.7342735 63.0872722,56.6385092 C61.8869557,57.3586991 60.6995851,57.9309511 59.5833333,58.3774014 L59.5833333,58.3774014 L59.5833333,61.875 C59.5833333,64.4063051 57.5313051,66.4583333 55,66.4583333 C52.4686949,66.4583333 50.4166667,64.4063051 50.4166667,61.875 L50.4166667,61.875 L50.4166667,55 C50.4166667,52.815212 51.9587735,50.9341441 54.1011344,50.5056719 C55.0631768,50.3132634 56.749269,49.7512327 58.3710611,48.7781574 C60.6921265,47.3855182 61.875,45.7294953 61.875,43.5416667 C61.875,39.1979718 59.3436949,36.6666667 55,36.6666667 C52.8235145,36.6666667 50.8498276,37.3245623 49.3567167,38.3910701 C48.796674,38.7911006 48.3637937,39.2114259 48.0874742,39.5843791 L48.0874742,39.5843791 L47.9642368,40.1659596 C47.4342701,42.1113531 45.6550022,43.5416667 43.5416667,43.5416667 C41.0103616,43.5416667 38.9583333,41.4896384 38.9583333,38.9583333 C38.9583333,33.0852716 46.7777136,27.5 55,27.5 Z" id="RoundIcon"></path>
            </g>
        </g>
    </g>
</svg>