<?xml version="1.0" encoding="UTF-8"?>
<svg xmlns="http://www.w3.org/2000/svg" xmlns:xlink="http://www.w3.org/1999/xlink" width="150px" height="150px" viewBox="0 0 150 150" version="1.1">
<g id="surface1">
<path style=" stroke:none;fill-rule:nonzero;fill:rgb(0%,0%,0%);fill-opacity:1;" d="M 133.53125 74.070312 L 94.875 49.09375 C 94.289062 48.71875 93.570312 48.585938 92.878906 48.78125 L 92.234375 48.945312 L 85.769531 45.015625 L 85.769531 12.074219 L 13.769531 12.074219 L 13.769531 30.03125 L 1.949219 28.980469 L 1.949219 31.90625 L 1.84375 51.554688 L 1.785156 51.554688 L 1.785156 62.878906 L 1.5 115.425781 L 13.753906 115.246094 L 13.753906 129.886719 L 85.753906 129.886719 L 85.753906 128.578125 L 93.496094 129.78125 L 144.105469 137.925781 L 148.5 83.175781 Z M 40.441406 18.359375 L 59.101562 18.359375 L 59.101562 20.039062 L 40.441406 20.039062 Z M 24.164062 48.644531 L 28.09375 48.644531 L 27.660156 31.246094 L 24.164062 30.929688 L 24.164062 24.691406 L 75.359375 24.675781 L 75.375 53.308594 L 48.03125 60.40625 C 46.90625 60.703125 46.125 61.726562 46.15625 62.894531 L 46.261719 67.453125 L 28.183594 67.394531 L 28.261719 70.378906 L 27.808594 52.980469 L 15.703125 52.320312 L 24.164062 52.785156 Z M 42.75 103.320312 L 42.75 95.925781 L 56.789062 95.925781 L 56.789062 103.320312 Z M 56.789062 107.550781 L 56.789062 114.945312 L 42.75 114.945312 L 42.75 107.550781 Z M 42.75 91.710938 L 42.75 84.328125 L 56.789062 84.328125 L 56.789062 91.710938 Z M 42.75 79.800781 L 42.75 72.40625 L 46.363281 72.40625 L 46.425781 75.089844 C 46.453125 76.335938 47.398438 77.386719 48.628906 77.519531 L 56.789062 78.496094 L 56.789062 79.800781 Z M 22.964844 87.136719 L 6.960938 88.769531 L 6.960938 80.609375 L 22.769531 79.589844 Z M 23.113281 65.503906 L 6.796875 66.03125 L 6.796875 56.851562 L 22.921875 57.734375 Z M 6.960938 34.441406 L 22.769531 35.835938 L 22.964844 43.621094 L 6.960938 43.621094 Z M 6.734375 48.644531 L 13.753906 48.644531 L 13.753906 52.199219 L 6.71875 51.824219 Z M 6.660156 71.070312 L 13.753906 70.84375 L 13.753906 75.148438 L 6.644531 75.601562 Z M 6.601562 93.855469 L 13.769531 93.121094 L 13.769531 96.226562 L 24.449219 95.234375 L 6.601562 96.886719 Z M 6.886719 109.09375 L 6.886719 101.894531 L 19.546875 100.726562 L 19.679688 106.664062 Z M 38.203125 114.945312 L 24.164062 114.945312 L 24.164062 110.925781 L 19.351562 111.839844 L 24.808594 110.804688 L 24.734375 107.550781 L 38.203125 107.550781 Z M 38.203125 103.320312 L 24.628906 103.320312 L 24.644531 103.769531 L 24.464844 95.925781 L 38.21875 95.925781 L 38.21875 103.320312 Z M 38.203125 79.800781 L 27.796875 79.800781 L 27.914062 84.316406 L 38.203125 84.316406 L 38.203125 91.695312 L 27.675781 91.695312 L 24.914062 91.980469 L 28.109375 91.648438 L 27.660156 74.25 L 24.179688 74.476562 L 24.179688 72.40625 L 38.21875 72.40625 L 38.21875 79.800781 Z M 59.101562 125.113281 L 40.441406 125.113281 L 40.441406 123.449219 L 59.101562 123.449219 Z M 75.34375 114.945312 L 61.304688 114.945312 L 61.304688 107.550781 L 75.34375 107.550781 Z M 75.34375 103.320312 L 61.304688 103.320312 L 61.304688 95.925781 L 75.34375 95.925781 Z M 75.34375 91.710938 L 61.304688 91.710938 L 61.304688 84.328125 L 75.34375 84.328125 Z M 61.320312 79.800781 L 61.320312 79.050781 L 67.636719 79.800781 Z M 139.546875 132.121094 L 94.273438 124.828125 L 85.753906 123.496094 L 85.753906 81.960938 L 89.054688 82.351562 L 102.898438 101.398438 L 106.964844 98.445312 L 92.488281 78.523438 C 92.085938 77.953125 91.453125 77.578125 90.765625 77.503906 L 51.390625 72.796875 L 51.226562 64.753906 L 93.089844 53.894531 L 132.929688 79.636719 L 132.976562 79.574219 L 143.28125 85.84375 Z M 139.546875 132.121094 "/>
</g>
</svg>
