<svg viewBox="0 0 177 145" version="1.1" xmlns="http://www.w3.org/2000/svg" xmlns:xlink="http://www.w3.org/1999/xlink">
    <defs>
        <ellipse id="path-1" cx="70.4347826" cy="70" rx="70.4347826" ry="70"></ellipse>
        <filter id="filter-3">
            <feColorMatrix in="SourceGraphic" type="matrix" values="0 0 0 0 0.000000 0 0 0 0 0.623529 0 0 0 0 0.992157 0 0 0 1.000000 0"></feColorMatrix>
        </filter>
        <filter x="-16.0%" y="-8.3%" width="132.0%" height="115.5%" filterUnits="objectBoundingBox" id="filter-4">
            <feOffset dx="0" dy="2" in="SourceAlpha" result="shadowOffsetOuter1"></feOffset>
            <feGaussianBlur stdDeviation="2" in="shadowOffsetOuter1" result="shadowBlurOuter1"></feGaussianBlur>
            <feColorMatrix values="0 0 0 0 0   0 0 0 0 0   0 0 0 0 0  0 0 0 0.201076267 0" type="matrix" in="shadowBlurOuter1" result="shadowMatrixOuter1"></feColorMatrix>
            <feMerge>
                <feMergeNode in="shadowMatrixOuter1"></feMergeNode>
                <feMergeNode in="SourceGraphic"></feMergeNode>
            </feMerge>
        </filter>
        <filter x="-18.1%" y="-8.0%" width="136.1%" height="116.0%" filterUnits="objectBoundingBox" id="filter-5">
            <feOffset dx="0" dy="1" in="SourceAlpha" result="shadowOffsetOuter1"></feOffset>
            <feGaussianBlur stdDeviation="1" in="shadowOffsetOuter1" result="shadowBlurOuter1"></feGaussianBlur>
            <feColorMatrix values="0 0 0 0 0   0 0 0 0 0   0 0 0 0 0  0 0 0 0.0988308566 0" type="matrix" in="shadowBlurOuter1" result="shadowMatrixOuter1"></feColorMatrix>
            <feMerge>
                <feMergeNode in="shadowMatrixOuter1"></feMergeNode>
                <feMergeNode in="SourceGraphic"></feMergeNode>
            </feMerge>
        </filter>
        <filter x="-30.8%" y="-33.3%" width="161.5%" height="166.7%" filterUnits="objectBoundingBox" id="filter-6">
            <feOffset dx="0" dy="1" in="SourceAlpha" result="shadowOffsetOuter1"></feOffset>
            <feGaussianBlur stdDeviation="1.5" in="shadowOffsetOuter1" result="shadowBlurOuter1"></feGaussianBlur>
            <feColorMatrix values="0 0 0 0 0   0 0 0 0 0   0 0 0 0 0  0 0 0 0.097465035 0" type="matrix" in="shadowBlurOuter1" result="shadowMatrixOuter1"></feColorMatrix>
            <feMerge>
                <feMergeNode in="shadowMatrixOuter1"></feMergeNode>
                <feMergeNode in="SourceGraphic"></feMergeNode>
            </feMerge>
        </filter>
    </defs>
    <g id="Persoon-zoeken" stroke="none" stroke-width="1" fill="none" fill-rule="evenodd">
        <g id="Search---Algemeen---Simple" transform="translate(-425.000000, -325.000000)">
            <g id="Empty-State---Illustration-+-text" transform="translate(304.000000, 325.000000)">
                <g id="Image" transform="translate(121.000000, 0.000000)">
                    <g id="Group-2" transform="translate(18.521739, 0.000000)">
                        <mask id="mask-2" fill="white">
                            <use xlink:href="#path-1"></use>
                        </mask>
                        <g id="Mask"></g>
                        <rect id="Rectangle" fill="#80CFFE" mask="url(#mask-2)" x="0" y="0" width="140.869565" height="140"></rect>
                        <path d="M-9.7826087,90.5787906 C24.9149569,88.007745 51.0019135,86.7222222 68.4782609,86.7222222 C85.9546083,86.7222222 112.041565,88.007745 146.73913,90.5787906 L146.73913,140 L-9.7826087,140 L-9.7826087,90.5787906 Z" id="Rectangle" fill="#009FFD" mask="url(#mask-2)"></path>
                        <g id="Group-4" mask="url(#mask-2)">
                            <g transform="translate(-15.521739, 29.000000)">
                                <rect id="Rectangle" fill="#80CFFE" x="8" y="3" width="102" height="149" rx="4"></rect>
                                <g filter="url(#filter-3)" fill="none" id="Bookcase" stroke-width="1">
                                    <g>
                                        <path d="M105.771045,0.774445893 C108.695106,0.774445893 111.065525,3.14172131 111.065525,6.06190352 L111.065525,6.06190352 L111.065525,151.408761 C111.065525,154.328944 108.695106,156.696219 105.771045,156.696219 L105.771045,156.696219 L101.458734,156.695446 L101.459563,170.378096 L98.4725502,170.378096 L98.4717344,156.695446 L16.7597344,156.695446 L16.7606257,170.378096 L13.7736128,170.378096 L13.7727344,156.695446 L11.4692149,156.696219 C8.61825555,156.696219 6.29360137,154.445828 6.17915051,151.62671 L6.17473436,151.408761 L6.17473436,6.06190352 C6.17473436,3.14172131 8.54515403,0.774445893 11.4692149,0.774445893 L11.4692149,0.774445893 Z M107.331734,122.591446 L9.90773436,122.591446 L9.90850059,151.408761 C9.90850059,152.221754 10.5317733,152.889366 11.3271581,152.961036 L11.4692149,152.967405 L12.5167344,152.966446 L12.516876,130.737601 L11.714876,130.73794 L11.714876,125.517601 L40.6168831,125.517601 L40.6168831,130.73794 L39.813876,130.737601 L39.8137344,152.966446 L44.6307344,152.966446 L44.6302172,130.737601 L43.8282172,130.73794 L43.8282172,125.517601 L72.7302243,125.517601 L72.7302243,130.73794 L71.9272172,130.737601 L71.9267344,152.966446 L76.7437344,152.966446 L76.7435584,130.737601 L75.9415584,130.73794 L75.9415584,125.517601 L104.843566,125.517601 L104.843566,130.73794 L104.040558,130.737601 L104.039734,152.966446 L105.771045,152.967405 C106.585117,152.967405 107.253616,152.344959 107.325381,151.55063 L107.331759,151.408761 L107.331734,122.591446 Z M96.8152302,133.548892 L83.568477,133.548892 L83.568477,139.57236 L96.8152302,139.57236 L96.8152302,133.548892 Z M64.701889,133.548892 L51.4551358,133.548892 L51.4551358,139.57236 L64.701889,139.57236 L64.701889,133.548892 Z M32.5885478,133.548892 L19.3417946,133.548892 L19.3417946,139.57236 L32.5885478,139.57236 L32.5885478,133.548892 Z M107.331734,82.6354459 L9.90773436,82.6354459 L9.90773436,86.9664459 L17.7361275,86.9674055 L17.7357344,119.608446 L18.1367344,119.608446 L18.1375443,86.9674055 L26.1658796,86.9674055 L26.1657344,119.608446 L26.5667344,119.608446 L26.5672963,86.9674055 L34.2647922,86.967176 L34.2597627,86.885961 L42.2685414,86.3259326 L44.5655029,119.174013 L38.3437344,119.608446 L53.8557344,119.608446 L53.8565525,86.9674055 L93.998229,86.9674055 L93.9977922,87.429176 L100.825473,86.1023944 L107.108488,118.425701 L101.021734,119.608446 L107.331734,119.608446 L107.331734,82.6354459 Z M34.5947922,91.690176 L34.5947344,119.608446 L36.5467344,119.608446 L34.5947922,91.690176 Z M93.9977922,93.056176 L93.9977344,119.608446 L99.1587344,119.608446 L93.9977922,93.056176 Z M30.581464,113.0691 C29.4729822,113.0691 28.5743802,113.968033 28.5743802,115.076923 C28.5743802,116.185813 29.4729822,117.084746 30.581464,117.084746 C31.6899458,117.084746 32.5885478,116.185813 32.5885478,115.076923 C32.5885478,113.968033 31.6899458,113.0691 30.581464,113.0691 Z M65.8990555,113.0691 C64.7905737,113.0691 63.8919717,113.968033 63.8919717,115.076923 C63.8919717,116.185813 64.7905737,117.084746 65.8990555,117.084746 C67.0075373,117.084746 67.9061393,116.185813 67.9061393,115.076923 C67.9061393,113.968033 67.0075373,113.0691 65.8990555,113.0691 Z M89.9840614,113.0691 C88.8755796,113.0691 87.9769776,113.968033 87.9769776,115.076923 C87.9769776,116.185813 88.8755796,117.084746 89.9840614,117.084746 C91.0925432,117.084746 91.9911452,116.185813 91.9911452,115.076923 C91.9911452,113.968033 91.0925432,113.0691 89.9840614,113.0691 Z M81.9557261,113.0691 C80.8472443,113.0691 79.9486423,113.968033 79.9486423,115.076923 C79.9486423,116.185813 80.8472443,117.084746 81.9557261,117.084746 C83.0642079,117.084746 83.9628099,116.185813 83.9628099,115.076923 C83.9628099,113.968033 83.0642079,113.0691 81.9557261,113.0691 Z M57.8707202,113.0691 C56.7622384,113.0691 55.8636364,113.968033 55.8636364,115.076923 C55.8636364,116.185813 56.7622384,117.084746 57.8707202,117.084746 C58.979202,117.084746 59.877804,116.185813 59.877804,115.076923 C59.877804,113.968033 58.979202,113.0691 57.8707202,113.0691 Z M73.9273908,113.0691 C72.818909,113.0691 71.920307,113.968033 71.920307,115.076923 C71.920307,116.185813 72.818909,117.084746 73.9273908,117.084746 C75.0358726,117.084746 75.9344746,116.185813 75.9344746,115.076923 C75.9344746,113.968033 75.0358726,113.0691 73.9273908,113.0691 Z M22.1517119,113.0691 C21.0432301,113.0691 20.1446281,113.968033 20.1446281,115.076923 C20.1446281,116.185813 21.0432301,117.084746 22.1517119,117.084746 C23.2601937,117.084746 24.1587957,116.185813 24.1587957,115.076923 C24.1587957,113.968033 23.2601937,113.0691 22.1517119,113.0691 Z M13.7219599,113.0691 C12.6134781,113.0691 11.714876,113.968033 11.714876,115.076923 C11.714876,116.185813 12.6134781,117.084746 13.7219599,117.084746 C14.8304416,117.084746 15.7290437,116.185813 15.7290437,115.076923 C15.7290437,113.968033 14.8304416,113.0691 13.7219599,113.0691 Z M40.0849142,112.644059 C38.9791327,112.721383 38.145426,113.680809 38.2227782,114.786998 C38.3001305,115.893187 39.2592499,116.727247 40.3650315,116.649923 C41.4708131,116.572599 42.3045198,115.613173 42.2271675,114.506984 C42.1498153,113.400795 41.1906958,112.566735 40.0849142,112.644059 Z M101.865495,112.490467 C100.77738,112.701975 100.066812,113.755853 100.278398,114.84437 C100.489984,115.932886 101.543601,116.643842 102.631717,116.432334 C103.719832,116.220825 104.4304,115.166947 104.218814,114.078431 C104.007228,112.989914 102.953611,112.278959 101.865495,112.490467 Z M67.9061393,89.7783572 L63.8919717,89.7783572 L63.8919717,111.462842 L67.9061393,111.462842 L67.9061393,89.7783572 Z M91.9911452,89.7783572 L87.9769776,89.7783572 L87.9769776,111.462842 L91.9911452,111.462842 L91.9911452,89.7783572 Z M32.5885478,89.7783572 L28.5743802,89.7783572 L28.5743802,111.462842 L32.5885478,111.462842 L32.5885478,89.7783572 Z M83.9628099,89.7783572 L79.9486423,89.7783572 L79.9486423,111.462842 L83.9628099,111.462842 L83.9628099,89.7783572 Z M76.03005,89.7783572 L72.2070332,89.7783572 L72.2070332,111.462842 L76.03005,111.462842 L76.03005,89.7783572 Z M15.7290437,89.7783572 L11.714876,89.7783572 L11.714876,111.462842 L15.7290437,111.462842 L15.7290437,89.7783572 Z M59.877804,89.7783572 L55.8636364,89.7783572 L55.8636364,111.462842 L59.877804,111.462842 L59.877804,89.7783572 Z M24.2543712,89.7783572 L20.4313544,89.7783572 L20.4313544,111.462842 L24.2543712,111.462842 L24.2543712,89.7783572 Z M99.3916201,89.2446707 L95.451204,90.01061 L99.5887988,111.29669 L103.529215,110.530751 L99.3916201,89.2446707 Z M40.4624288,89.2700441 L36.4580395,89.5500583 L37.9706727,111.181721 L41.975062,110.901707 L40.4624288,89.2700441 Z M107.331734,42.4794459 L9.90773436,42.4794459 L9.90773436,79.6524459 L12.7077344,79.6524459 L12.7077922,46.8109518 L28.1658796,46.8109518 L28.1657922,77.4612581 L38.267049,46.3763184 L45.4267922,48.7022581 L45.4268005,46.8109518 L93.5968123,46.8109518 L93.5967344,79.6524459 L101.197734,79.6524459 L94.9446411,47.4778193 L102.825473,45.9459407 L107.331734,69.1314459 L107.331734,42.4794459 Z M28.1657922,77.7162581 L28.1657344,79.6524459 L34.1237344,79.6524459 L28.1657922,77.7162581 Z M45.4267922,50.3182581 L35.8957344,79.6524459 L45.4267344,79.6524459 L45.4267922,50.3182581 Z M107.331734,78.6134459 L101.987734,79.6524459 L107.331734,79.6524459 L107.331734,78.6134459 Z M49.4409681,72.9126467 C48.3324863,72.9126467 47.4338843,73.8115795 47.4338843,74.9204694 C47.4338843,76.0293592 48.3324863,76.928292 49.4409681,76.928292 C50.5494499,76.928292 51.4480519,76.0293592 51.4480519,74.9204694 C51.4480519,73.8115795 50.5494499,72.9126467 49.4409681,72.9126467 Z M89.5826446,72.9126467 C88.4741628,72.9126467 87.5755608,73.8115795 87.5755608,74.9204694 C87.5755608,76.0293592 88.4741628,76.928292 89.5826446,76.928292 C90.6911264,76.928292 91.5897285,76.0293592 91.5897285,74.9204694 C91.5897285,73.8115795 90.6911264,72.9126467 89.5826446,72.9126467 Z M81.5543093,72.9126467 C80.4458275,72.9126467 79.5472255,73.8115795 79.5472255,74.9204694 C79.5472255,76.0293592 80.4458275,76.928292 81.5543093,76.928292 C82.6627911,76.928292 83.5613932,76.0293592 83.5613932,74.9204694 C83.5613932,73.8115795 82.6627911,72.9126467 81.5543093,72.9126467 Z M57.4693034,72.9126467 C56.3608216,72.9126467 55.4622196,73.8115795 55.4622196,74.9204694 C55.4622196,76.0293592 56.3608216,76.928292 57.4693034,76.928292 C58.5777852,76.928292 59.4763872,76.0293592 59.4763872,74.9204694 C59.4763872,73.8115795 58.5777852,72.9126467 57.4693034,72.9126467 Z M15.7219599,72.9126467 C14.6134781,72.9126467 13.714876,73.8115795 13.714876,74.9204694 C13.714876,76.0293592 14.6134781,76.928292 15.7219599,76.928292 C16.8304416,76.928292 17.7290437,76.0293592 17.7290437,74.9204694 C17.7290437,73.8115795 16.8304416,72.9126467 15.7219599,72.9126467 Z M24.1517119,72.9126467 C23.0432301,72.9126467 22.1446281,73.8115795 22.1446281,74.9204694 C22.1446281,76.0293592 23.0432301,76.928292 24.1517119,76.928292 C25.2601937,76.928292 26.1587957,76.0293592 26.1587957,74.9204694 C26.1587957,73.8115795 25.2601937,72.9126467 24.1517119,72.9126467 Z M73.525974,72.9126467 C72.4174922,72.9126467 71.5188902,73.8115795 71.5188902,74.9204694 C71.5188902,76.0293592 72.4174922,76.928292 73.525974,76.928292 C74.6344558,76.928292 75.5330579,76.0293592 75.5330579,74.9204694 C75.5330579,73.8115795 74.6344558,72.9126467 73.525974,72.9126467 Z M65.4976387,72.9126467 C64.3891569,72.9126467 63.4905549,73.8115795 63.4905549,74.9204694 C63.4905549,76.0293592 64.3891569,76.928292 65.4976387,76.928292 C66.6061205,76.928292 67.5047226,76.0293592 67.5047226,74.9204694 C67.5047226,73.8115795 66.6061205,72.9126467 65.4976387,72.9126467 Z M31.4895805,73.7302813 C31.1469147,74.7848982 31.7237505,75.9175174 32.7779794,76.2600572 C33.8322082,76.6025969 34.964615,76.0253442 35.3072808,74.9707273 C35.6499466,73.9161104 35.0731108,72.7834912 34.018882,72.4409515 C32.9646532,72.0984117 31.8322463,72.6756644 31.4895805,73.7302813 Z M103.865495,72.3340132 C102.77738,72.5455215 102.066812,73.5993998 102.278398,74.6879162 C102.489984,75.7764326 103.543601,76.4873882 104.631717,76.2758799 C105.719832,76.0643716 106.4304,75.0104933 106.218814,73.9219769 C106.007228,72.8334605 104.953611,72.1225049 103.865495,72.3340132 Z M39.3072673,49.6699154 L32.6063929,70.2930862 L36.4240932,71.5335322 L43.1249676,50.9103614 L39.3072673,49.6699154 Z M91.5897285,49.6219035 L87.5755608,49.6219035 L87.5755608,71.3063885 L91.5897285,71.3063885 L91.5897285,49.6219035 Z M83.5613932,49.6219035 L79.5472255,49.6219035 L79.5472255,71.3063885 L83.5613932,71.3063885 L83.5613932,49.6219035 Z M75.6286333,49.6219035 L71.8056165,49.6219035 L71.8056165,71.3063885 L75.6286333,71.3063885 L75.6286333,49.6219035 Z M51.5436274,49.6219035 L47.7206106,49.6219035 L47.7206106,71.3063885 L51.5436274,71.3063885 L51.5436274,49.6219035 Z M26.2543712,49.6219035 L22.4313544,49.6219035 L22.4313544,71.3063885 L26.2543712,71.3063885 L26.2543712,49.6219035 Z M18.7290437,49.6219035 L14.714876,49.6219035 L14.714876,71.3063885 L18.7290437,71.3063885 L18.7290437,49.6219035 Z M67.5047226,49.6219035 L63.4905549,49.6219035 L63.4905549,71.3063885 L67.5047226,71.3063885 L67.5047226,49.6219035 Z M59.4763872,49.6219035 L55.4622196,49.6219035 L55.4622196,71.3063885 L59.4763872,71.3063885 L59.4763872,49.6219035 Z M101.39162,49.088217 L97.451204,49.8541563 L101.588799,71.1402362 L105.529215,70.3742969 L101.39162,49.088217 Z M105.771045,4.50325945 L11.4692149,4.50325945 C10.6072562,4.50325945 9.90850059,5.20108817 9.90850059,6.06190352 L9.90850059,6.06190352 L9.90773436,39.4964459 L14.9257344,39.4964459 L14.9264382,35.250696 L16.0628645,34.2894319 L17.0647235,34.2799712 C17.2441139,32.6155805 18.7137579,30.9272563 20.7235136,30.2629629 L20.8815337,28.9788455 C20.9105543,28.7466386 20.940297,28.5107578 20.9705067,28.273764 L21.062282,27.5620048 C21.2321705,26.2603821 21.4084739,25.002563 21.5487709,24.2146358 C21.0477752,23.7531586 20.715758,23.0259625 20.715758,22.5576672 C20.715758,22.3737858 20.7669494,22.1986724 20.8594521,22.0395574 C18.6110108,21.4473963 16.9052538,19.6841751 17.0555794,17.6747373 L17.0619982,17.6002028 C17.0619982,17.3273205 19.3985254,17.1052423 22.3219826,17.095176 L22.7390377,17.095176 C25.6269709,17.1052454 27.9415513,17.3221997 27.9956272,17.590593 L27.9965945,17.6002028 C27.9965945,19.4120426 26.3913614,21.338011 24.1629119,22.00621 C24.2679598,22.1739122 24.3266424,22.3607628 24.3266424,22.5576672 C24.3266424,23.0213944 24.0011629,23.7389961 23.5084341,24.2015202 L23.5638651,24.4885212 C23.830303,25.908753 24.2003265,28.4195934 24.4617967,30.2607934 C26.435921,30.8778003 27.9292962,32.4061954 27.9942905,34.1783117 L28.9923073,34.1688559 L30.1800472,35.2507667 L30.1797344,39.4964459 L37.5377344,39.4964459 L37.5386659,6.65449804 L93.737013,6.65449804 L93.7366659,7.27180443 L101.367091,5.78948695 L107.331734,36.4764459 L107.331759,6.06190352 C107.331759,5.24891125 106.708486,4.58129902 105.913102,4.50962912 L105.771045,4.50325945 Z M93.7366659,8.61180443 L93.7367344,39.4964459 L99.7397344,39.4964459 L93.7366659,8.61180443 Z M107.331734,38.1744459 L100.529734,39.4964459 L107.331734,39.4964459 L107.331734,38.1744459 Z M89.7228453,32.756193 C88.6143635,32.756193 87.7157615,33.6551258 87.7157615,34.7640156 C87.7157615,35.8729055 88.6143635,36.7718383 89.7228453,36.7718383 C90.8313271,36.7718383 91.7299292,35.8729055 91.7299292,34.7640156 C91.7299292,33.6551258 90.8313271,32.756193 89.7228453,32.756193 Z M41.5528335,32.756193 C40.4443517,32.756193 39.5457497,33.6551258 39.5457497,34.7640156 C39.5457497,35.8729055 40.4443517,36.7718383 41.5528335,36.7718383 C42.6613153,36.7718383 43.5599174,35.8729055 43.5599174,34.7640156 C43.5599174,33.6551258 42.6613153,32.756193 41.5528335,32.756193 Z M65.6378394,32.756193 C64.5293576,32.756193 63.6307556,33.6551258 63.6307556,34.7640156 C63.6307556,35.8729055 64.5293576,36.7718383 65.6378394,36.7718383 C66.7463212,36.7718383 67.6449233,35.8729055 67.6449233,34.7640156 C67.6449233,33.6551258 66.7463212,32.756193 65.6378394,32.756193 Z M49.5811688,32.756193 C48.472687,32.756193 47.574085,33.6551258 47.574085,34.7640156 C47.574085,35.8729055 48.472687,36.7718383 49.5811688,36.7718383 C50.6896506,36.7718383 51.5882527,35.8729055 51.5882527,34.7640156 C51.5882527,33.6551258 50.6896506,32.756193 49.5811688,32.756193 Z M73.6661747,32.756193 C72.5576929,32.756193 71.6590909,33.6551258 71.6590909,34.7640156 C71.6590909,35.8729055 72.5576929,36.7718383 73.6661747,36.7718383 C74.7746565,36.7718383 75.6732586,35.8729055 75.6732586,34.7640156 C75.6732586,33.6551258 74.7746565,32.756193 73.6661747,32.756193 Z M57.6095041,32.756193 C56.5010223,32.756193 55.6024203,33.6551258 55.6024203,34.7640156 C55.6024203,35.8729055 56.5010223,36.7718383 57.6095041,36.7718383 C58.7179859,36.7718383 59.616588,35.8729055 59.616588,34.7640156 C59.616588,33.6551258 58.7179859,32.756193 57.6095041,32.756193 Z M81.69451,32.756193 C80.5860282,32.756193 79.6874262,33.6551258 79.6874262,34.7640156 C79.6874262,35.8729055 80.5860282,36.7718383 81.69451,36.7718383 C82.8029918,36.7718383 83.7015939,35.8729055 83.7015939,34.7640156 C83.7015939,33.6551258 82.8029918,32.756193 81.69451,32.756193 Z M102.407113,32.1775595 C101.318997,32.3890678 100.608429,33.4429461 100.820015,34.5314625 C101.031602,35.6199789 102.085218,36.3309345 103.173334,36.1194262 C104.26145,35.9079179 104.972018,34.8540396 104.760432,33.7655232 C104.548845,32.6770068 103.495229,31.9660512 102.407113,32.1775595 Z M91.7299292,9.4654498 L87.7157615,9.4654498 L87.7157615,31.1499348 L91.7299292,31.1499348 L91.7299292,9.4654498 Z M83.7015939,9.4654498 L79.6874262,9.4654498 L79.6874262,31.1499348 L83.7015939,31.1499348 L83.7015939,9.4654498 Z M59.616588,9.4654498 L55.6024203,9.4654498 L55.6024203,31.1499348 L59.616588,31.1499348 L59.616588,9.4654498 Z M75.768834,9.4654498 L71.9458172,9.4654498 L71.9458172,31.1499348 L75.768834,31.1499348 L75.768834,9.4654498 Z M51.6838281,9.4654498 L47.8608113,9.4654498 L47.8608113,31.1499348 L51.6838281,31.1499348 L51.6838281,9.4654498 Z M43.5599174,9.4654498 L39.5457497,9.4654498 L39.5457497,31.1499348 L43.5599174,31.1499348 L43.5599174,9.4654498 Z M99.9332376,8.93176325 L95.9928215,9.69770255 L100.130416,30.9837825 L104.070832,30.2178432 L99.9332376,8.93176325 Z M67.6449233,9.4654498 L63.6307556,9.4654498 L63.6307556,21.4654498 L67.6449233,21.4654498 L67.6449233,9.4654498 Z" fill="#092A5B"></path>
                                    </g>
                                </g>
                            </g>
                        </g>
                        <g id="Man" filter="url(#filter-4)" mask="url(#mask-2)">
                            <g transform="translate(41.478261, 41.000000)" id="Group-3">
                                <g id="4.-Illustratie/People/Male/2.-Lower-Part/Jeans" transform="translate(31.183664, 76.984897)" fill="#3D4A9A">
                                    <polygon id="Base" points="28.7308715 0 25.1762858 85.9011074 22.4178062 85.9011074 16.8432646 7.09493029 11.2873922 85.9011074 8.52891259 85.9011074 4.95763488 0"></polygon>
                                </g>
                                <g id="4.-Illustratie/People/Hand/Open" transform="translate(8.743526, 6.986796) scale(1, -1) rotate(178.000000) translate(-8.743526, -6.986796) translate(4.243526, 0.986796)" fill="#FED1C9">
                                    <path d="M8.08130886,5.39065913 L7.011267,9.60252863 C6.76186059,9.80701209 6.51785471,10.0203116 6.28219512,10.2441414 C6.13736266,10.3800556 5.9947395,10.5211124 5.85604401,10.6660875 C5.7141573,10.8122871 5.5766892,10.96216 5.44339424,11.116196 L4.90334099,11.1509704 L4.50345611,11.1769288 L3.50067543,11.2403554 L2.96234054,10.6065792 L2.95080304,10.0891258 L3.15847806,7.12129939 L2.88894239,5.24176579 L2.49028491,6.91191812 C2.28138249,7.34635364 2.04375907,7.76683041 1.7742234,8.16526704 C1.60680689,8.41260631 1.36599224,8.48999167 1.27737442,8.34256767 C1.16862733,8.16404259 1.05914381,7.98698685 0.948187415,7.80968622 C0.909892731,7.74895341 1.33408001,6.56245956 1.36795607,6.39691367 C1.4715481,5.9078676 1.54396434,5.39702628 1.55255609,4.89108277 C1.55672923,4.65574313 1.5385638,3.66736559 1.703771,3.31178477 C2.21534871,2.21859415 3.02739241,1.08254772 3.02739241,1.08254772 C3.28539057,0.711538806 3.70221348,0.48379076 4.15291246,0.469342228 L5.64812351,0.482566308 C5.68126314,0.478403172 5.71219347,0.477423611 5.74508762,0.478403172 C5.97853791,0.485015212 6.05856398,0.62876586 6.15331878,0.849901865 L8.08130886,5.39065913 Z" id="Hand" transform="translate(4.513527, 5.854849) scale(-1, -1) translate(-4.513527, -5.854849) "></path>
                                </g>
                                <path d="M40,20.5949742 L33.2833399,16 L32.912075,16.5928708 C30.9459188,19.7326147 28.8597819,22.7705358 26.6580927,25.6962832 C25.5453289,27.1738525 24.4033871,28.6228535 23.232779,30.0421859 L22.4904268,30.9337215 L21.7881832,31.7620274 L20.5369575,33.2006278 L20.0831243,33.7134488 L19.8959546,33.9115244 C19.8659383,33.941449 19.8364033,33.9699116 19.8071872,33.9970353 C19.4250719,34.3518884 18.9849777,34.6160716 18.4564244,34.8038248 C17.9205747,34.992707 17.275066,35.1007998 16.5552169,35.1222233 C15.2000908,35.1615642 13.6127019,34.9121107 11.7897575,34.4085989 C10.578358,34.0743614 9.32123341,33.650547 7.85038132,33.0906304 L6.70454331,32.6444467 L5.41517156,32.1232206 L2.79766271,31.0405687 L0.851144319,30.2536001 L-1,34.4847501 L0.233069493,35.0827926 L3.61948177,36.7686032 L4.2077612,37.057561 L5.31881257,37.5922423 C6.74782047,38.2689373 7.98281258,38.8066905 9.21050798,39.2764433 L10.1328289,39.6171163 C12.4811637,40.439281 14.4072019,40.8860909 16.4677467,40.9864343 C17.7651754,41.0417286 18.9919017,40.929899 20.1752513,40.6157642 C21.4866492,40.2701321 22.7603598,39.6395271 23.8212042,38.795867 C24.0792513,38.5922892 24.3345346,38.368327 24.5902329,38.123129 L25.6459483,37.1055326 L26.1681007,36.5927381 L26.6636587,36.1024467 L27.6885236,35.0695311 C27.8641678,34.8905346 28.0425897,34.7077732 28.2243312,34.5207324 C29.574015,33.1300212 30.8988746,31.7023279 32.1988797,30.238297 C34.7712685,27.3392635 37.2339003,24.3089677 39.5806013,21.1580934 L40,20.5949742 Z" id="Arm" fill="#3D4A9A" fill-rule="nonzero" transform="translate(19.500000, 28.500000) rotate(69.000000) translate(-19.500000, -28.500000) "></path>
                                <g id="4.-Illustratie/People/Male/1.-Upper-Part/Male-Back-1" filter="url(#filter-5)" transform="translate(47.721579, 44.450820) scale(-1, 1) translate(-47.721579, -44.450820) translate(29.721579, 3.950820)">
                                    <g id="Shirt" transform="translate(0.000000, 24.276801)">
                                        <polygon fill="#E5E9ED" points="11.0184458 6.29886819 13.071648 4.5118341 22.5816729 4.5118341 23.6901635 5.58084887 25.1582085 10.0633758 21.5653758 29.7432993 15.0586879 29.3963789 10.4774872 9.4200653"></polygon>
                                        <path d="M12.8622415,4.84815946 C10.0715873,10.5676271 16.4360205,25.9938627 17.9144548,29.4169797 C19.3930958,25.9938627 25.7576463,10.5676271 22.9670359,4.84815946 C22.9670359,4.84815946 24.3835699,4.98671029 26.4291222,6.65152081 L26.438306,6.65376902 L26.5097438,6.67152621 C27.2831373,6.86545867 33.4001603,8.44469344 35.2417308,10.3277363 C35.2417308,10.3277363 31.8583408,15.3218147 30.9926811,26.350461 L30.9886099,26.3662256 C30.8910688,26.7489981 29.0968929,34.0718066 31.7009481,45.00864 L31.7084249,45.0324619 C31.8189392,45.3875854 33.1174821,49.6634336 33.1174821,54.5113255 C33.1174821,54.5113255 32.9908125,54.5483476 32.7603504,54.6075437 L32.4961381,54.6735813 C29.8876208,55.308592 19.8666358,57.2712622 17.9144926,50.513608 C15.6662149,58.2975422 2.71163618,54.5113255 2.71163618,54.5113255 C2.71163618,49.4479717 4.12791622,45.00864 4.12791622,45.00864 C6.73201222,34.0718066 4.93806987,26.7489981 4.84054114,26.3662256 L4.83647045,26.350461 C3.97079723,15.3218147 0.587354177,10.3277363 0.587354177,10.3277363 C2.55451718,8.31630416 9.40010084,6.65152081 9.40010084,6.65152081 C11.4456853,4.98671029 12.8622415,4.84815946 12.8622415,4.84815946 Z" id="Jacket" fill="#3D4A9A"></path>
                                        <path d="M12.6411046,5.11982776 C9.55045502,10.9462707 17.8950463,30.3675659 17.8950463,30.3675659 L17.8950463,30.3675659 L6.76865343,16.7031936 L8.77765703,13.9979207 L6.38225444,13.0269782 C6.53681403,9.90578106 9.24133582,6.92313478 9.24133582,6.92313478 C11.0957798,5.25865026 12.6411046,5.11982776 12.6411046,5.11982776 Z M26.5877221,6.92313478 C26.5877221,6.92313478 29.2922439,9.90578106 29.4468035,13.0269782 L27.0514009,13.9979207 L29.0604045,16.7031936 L17.9337404,30.3675659 C17.9337404,30.3675659 26.2786029,10.9462707 23.1879533,5.11982776 C23.1879533,5.11982776 24.7332781,5.25865026 26.5877221,6.92313478 Z" id="Shades" fill="#000000" opacity="0.153878348"></path>
                                        <path d="M20.2323565,0.341286271 L20.2323565,2.73159892 L20.2323565,2.73159892 C20.2323565,2.80136337 20.2295495,2.87045733 20.2240445,2.93876953 C20.6115605,3.14302878 20.8412511,3.48042748 20.8412511,4.03542987 C20.8412511,5.39036171 19.4726152,8.0558605 17.7842798,8.0558605 C16.0957528,8.0558605 14.7271169,5.39036171 14.7271169,4.03542987 C14.7271169,3.47349523 14.9625812,3.13463419 15.3586713,2.93047044 C15.3541183,2.86503716 15.3515271,2.79862751 15.3515271,2.73159892 L15.3518425,2.30973528 C15.3533597,1.28901065 15.3598973,0.537035272 15.3614145,0.374227567 L15.3617299,0.341286271 L15.3617299,0.341286271 C16.4420479,0.619097687 17.2521185,0.758003395 17.7919418,0.758003395 C18.33448,0.758003395 19.1479516,0.619097687 20.2323565,0.341286271 Z" id="Neck" fill="#FED1C9"></path>
                                        <path d="M20.2495592,0.283316984 L20.2495592,2.55952584 L20.2495592,2.55952584 C20.2495592,2.68591286 20.2406488,2.81013842 20.223444,2.93156443 C20.620551,3.1344133 20.8567668,3.47331206 20.8567668,4.03542987 C20.8567668,5.39036171 19.4846577,8.0558605 17.7920378,8.0558605 C16.0992259,8.0558605 14.7271169,5.39036171 14.7271169,4.03542987 C14.7271169,3.46382484 14.9713735,3.12303726 15.3809176,2.92004923 C15.3647701,2.8032924 15.3563439,2.68243112 15.3563439,2.55952584 L15.3563439,0.283316984 L15.3563439,0.283316984 C16.0673148,0.594854412 16.8828507,0.750623126 17.8029516,0.750623126 C18.7230524,0.750623126 19.5385883,0.594854412 20.2495592,0.283316984 Z" id="Neck-Filter" fill="#000000" opacity="0.096796"></path>
                                        <path d="M21.1190278,2.98016821 L22.2556654,4.41395744 L19.9993127,9.50020745 L17.7355636,8.24916821 L15.3789163,9.50020745 L13.1225636,4.41395744 L14.2589192,2.98016821 L17.6855636,7.15716821 L21.1190278,2.98016821 Z" id="Shirt-Top" fill="#F2F4F6"></path>
                                    </g>
                                    <path d="M25.03109,15.2173401 C25.03109,20.8601114 21.7533044,25.4346801 17.7099694,25.4346801 C13.6663875,25.4346801 10.3886019,20.8601114 10.3886019,15.2173401 C10.3886019,9.57431763 13.6663875,5 17.7099694,5 C21.7533044,5 25.03109,9.57431763 25.03109,15.2173401" id="Face" fill="#FED1C9"></path>
                                    <path d="M9.0813286,4.6112917 C7.64453841,6.13022745 5.53378729,7.81070953 9.0813286,14.6141613 C9.50460895,15.4261442 10.2281409,17.7530617 10.3655529,18.3652373 C10.4924343,18.9306495 12.4878621,18.3854932 12.9340016,16.8648069 C13.4476914,15.1143047 11.5912167,11.9471462 14.7319157,11.1131569 C15.9683669,10.7848127 16.2483278,11.3652292 20.3825028,12.1134439 C25.2494562,12.9941965 25.8635723,12.3710178 26.0330899,12.1134439 C26.587618,11.2707021 25.1955188,10.0681071 25.776245,9.112583 C26.5383037,7.85847323 29.5749806,8.88001629 29.8857629,8.11229605 C30.1975726,7.34182502 27.6812634,3.48146759 24.4920207,2.86078953 C22.2212552,2.4186627 21.7537975,3.27590862 19.8688131,2.61071779 C17.5199667,1.78198005 17.3019054,0.118252772 15.5024503,0.109970571 C14.2290134,0.104248755 13.0090003,0.930985924 12.4203119,1.86050258 C11.9148412,2.65873157 9.35846422,4.3184577 9.0813286,4.6112917" id="Fill-9" fill="#3D4A9A"></path>
                                </g>
                                <g id="4.-Illustratie/Object---Electronics/Notebook-Carry" transform="translate(57.966981, 85.773069) scale(-1, 1) translate(-57.966981, -85.773069) translate(44.966981, 73.773069)">
                                    <path d="M25.0026636,23.2214965 L1,23.2214965 C0.44771525,23.2214965 6.76353751e-17,22.7737813 0,22.2214965 L0,1 C-6.76353751e-17,0.44771525 0.44771525,1.01453063e-16 1,0 L25.0026636,0 L25.0026636,0 L25.0026636,23.2214965 Z" id="Outside" fill="#F2F4F6"></path>
                                    <path d="M25.4344399,0 C25.7105823,-5.07265313e-17 25.9344399,0.223857625 25.9344399,0.5 L25.9344399,22.7214965 C25.9344399,22.9976389 25.7105823,23.2214965 25.4344399,23.2214965 L24.5708874,23.2214965 C24.294745,23.2214965 24.0708874,22.9976389 24.0708874,22.7214965 L24.0708874,0.5 C24.0708874,0.223857625 24.294745,5.07265313e-17 24.5708874,0 L25.4344399,0 Z M12.4236838,9.28859861 C13.2813602,9.28859861 13.9766443,10.3282604 13.9766443,11.6107483 C13.9766443,12.8932361 13.2813602,13.9328979 12.4236838,13.9328979 C11.5660074,13.9328979 10.8707233,12.8932361 10.8707233,11.6107483 C10.8707233,10.3282604 11.5660074,9.28859861 12.4236838,9.28859861 Z" id="Logo-+-Inside" fill="#BFC8D3"></path>
                                </g>
                                <g id="4.-Illustratie/People/Arms/Bent-3" transform="translate(64.129830, 69.128394) scale(-1, 1) translate(-64.129830, -69.128394) translate(53.629830, 37.128394)">
                                    <g id="4.-Illustratie/People/Hand/Open" transform="translate(14.346136, 56.444954) scale(-1, -1) rotate(-30.000000) translate(-14.346136, -56.444954) translate(10.846136, 49.944954)" fill="#FED1C9">
                                        <path d="M1.5447202,0.642622951 L2.65459073,0.713529508 L3.69490757,0.78142459 C3.84243748,0.95362623 3.99458619,1.12117377 4.1516254,1.28461475 C4.30513259,1.44668689 4.46298688,1.60437869 4.62328642,1.75632131 C4.81890619,1.94399098 5.01972212,2.12503883 5.22435874,2.30027334 L5.43021799,2.4736 L6.61453272,7.18217869 L4.480647,12.2584311 C4.37577306,12.5056459 4.28720078,12.6663492 4.02881965,12.673741 C4.00454831,12.674471 3.98124299,12.6742277 3.95753516,12.6726053 L3.92150047,12.6690869 L2.26661151,12.6838705 C1.79153491,12.6684872 1.35046629,12.436819 1.06286774,12.056503 L0.936641232,11.8766333 C0.865200026,11.7721342 0.753031482,11.6053544 0.618535951,11.3959887 C0.466078424,10.4466395 0.404672029,9.73115386 0.434316764,9.24953193 C0.460032578,8.83174106 0.604479797,8.19810746 0.867658422,7.34863115 L1.16597858,5.24744262 L0.936125343,1.92961803 L0.948894967,1.35114098 L1.5447202,0.642622951 Z" id="Path"></path>
                                    </g>
                                    <path d="M9.18914573,1.63114754 C10.8415894,5.8918377 12.3062925,10.2206967 13.5715721,14.6021197 C14.204076,16.7928311 14.7868599,18.9966836 15.3185654,21.2112131 C15.5856407,22.3180672 15.8355993,23.4287541 16.0776788,24.5408098 L16.4297944,26.2266885 C16.4895671,26.5595934 16.5612943,26.8935934 16.6058522,27.2251295 C16.6444327,27.556118 16.6976848,27.8892967 16.7194203,28.2175475 C16.9378624,30.8566951 16.5963429,33.3507443 16.0453472,35.6994213 C15.4818535,38.0494672 14.6928538,40.2727574 13.7940896,42.4172016 C11.9789011,46.6965082 9.72710011,50.6700131 7.29924134,54.4858262 L4.08618653,52.5516377 C6.18855573,48.7117328 8.0792752,44.7667 9.48148862,40.7329656 C10.1743087,38.7182885 10.7410626,36.6811623 11.084484,34.6645689 C11.4221998,32.653177 11.526802,30.6521885 11.2483156,28.8521475 C11.2192443,28.6251918 11.1643621,28.410282 11.1263249,28.1893492 C11.0825821,27.9708803 11.0179189,27.7636361 10.9679272,27.5506426 L10.5103943,25.9931623 C10.1930555,24.9481803 9.86865275,23.9053885 9.52822001,22.8686197 C8.84952806,20.7937131 8.12437642,18.7363279 7.35358017,16.6981066 C5.81171597,12.6216639 4.08808839,8.62160328 2.19628214,4.71024426 L9.18914573,1.63114754 Z" id="Arm" fill="#FDDBD5" transform="translate(9.491243, 28.058487) scale(-1, 1) translate(-9.491243, -28.058487) "></path>
                                    <g id="Sleeve" transform="translate(9.429224, 27.635353) rotate(-1.000000) translate(-9.429224, -27.635353) translate(0.929224, 0.635353)" fill="#3D4A9A">
                                        <path d="M8.36947962,0.723317056 C10.1786886,5.0753584 11.7823462,9.49703017 13.1676613,13.9723929 C13.8601701,16.2100742 14.498242,18.4611783 15.0803897,20.7231884 C15.3728021,21.8537739 15.646474,22.9882745 15.9115192,24.1241732 L16.2970396,25.8461979 C16.3624829,26.1862405 16.4410148,26.5274016 16.4897998,26.8660459 C16.5320404,27.204131 16.5903444,27.5444532 16.614142,27.8797419 C16.8533074,30.575474 16.4793884,33.1229967 15.8761204,35.5220305 C15.2591688,37.9224625 14.3953176,40.193421 13.4112888,42.3838432 C11.4238956,46.7549 10.3047669,49.1513259 7.64658018,53.0489518 L3.80247085,50.4922601 C6.03703498,46.6865639 7.6660636,43.4103093 8.68955671,40.6634963 C9.44810373,38.6056236 10.0686249,36.5248205 10.4446263,34.4649903 C10.8143808,32.4104733 10.7495324,30.3742405 10.4446263,28.5356058 C10.4127971,28.3037841 9.11345063,23.4751281 8.74072145,22.4161305 C7.99764285,20.296737 7.20369697,18.1952404 6.35977624,16.1133187 C4.67163729,11.9494752 2.7844913,7.86365142 0.713211749,3.86843105 L8.36947962,0.723317056 Z" id="4.-Illustratie/People/Arms/Bent-2-Sleeve" transform="translate(8.700237, 26.886134) scale(-1, 1) translate(-8.700237, -26.886134) "></path>
                                    </g>
                                </g>
                            </g>
                        </g>
                    </g>
                    <g id="Z/ClubLines" transform="translate(136.000000, 81.000000)">
                        <path d="M28.2198068,0 C32.3005774,-4.30233909e-15 35.6086957,3.30811824 35.6086957,7.38888889 C35.6086957,11.4696595 32.3005774,14.7777778 28.2198068,14.7777778 L7.38888889,14.7777778 L7.313,14.776 L7.23913043,14.7777778 C3.32266218,14.7777778 0.132603817,11.6868457 0.00402853471,7.82564062 L0,7.58333333 C0,7.55552167 0.000158789427,7.52774687 0.000475516428,7.50000977 C0.000278802977,7.4637494 4.58787135e-18,7.4263517 0,7.38888889 C-4.99750272e-16,3.30811824 3.30811824,-1.38553012e-16 7.38888889,0 L28.2198068,0 Z" id="Base" fill="#DFF3FE"></path>
                        <g id="Club" transform="translate(2.565217, 2.555556)" fill="#009FFD">
                            <path d="M5.06521739,5.53009259 L5.5944779,5.53381998 C8.38055744,5.57522235 9.61413043,5.97471811 9.61413043,7.38479345 C9.61413043,8.9412369 7.54047907,10.0509259 5.06521739,10.0509259 C2.58995572,10.0509259 0.516304348,8.9412369 0.516304348,7.38479345 C0.516304348,5.97471811 1.74987734,5.57522235 4.53595688,5.53381998 L5.06521739,5.53009259 Z M5.06521739,6.53472222 L5.06521739,9.0462963 L5.06521739,9.0462963 C7.05625848,9.0462963 8.60326087,8.21843699 8.60326087,7.38479345 C8.60326087,6.8414169 7.71096586,6.57337911 5.56851595,6.53862337 L5.06521739,6.53472222 Z M5.06521739,0.00462962963 C6.460937,0.00462962963 7.5923913,1.12909964 7.5923913,2.5162037 C7.5923913,3.90330776 6.460937,5.02777778 5.06521739,5.02777778 C3.66949778,5.02777778 2.53804348,3.90330776 2.53804348,2.5162037 C2.53804348,1.12909964 3.66949778,0.00462962963 5.06521739,0.00462962963 Z M5.06521739,1.00925926 C4.22778562,1.00925926 3.54891304,1.68394127 3.54891304,2.5162037 C3.54891304,3.34846614 4.22778562,4.02314815 5.06521739,4.02314815 C5.90264916,4.02314815 6.58152174,3.34846614 6.58152174,2.5162037 C6.58152174,1.68394127 5.90264916,1.00925926 5.06521739,1.00925926 Z" id="Person"></path>
                        </g>
                        <path d="M24.2681159,8.55555556 C24.9124482,8.55555556 25.4347826,9.07789001 25.4347826,9.72222222 C25.4347826,10.3665544 24.9124482,10.8888889 24.2681159,10.8888889 L15.6449275,10.8888889 C15.0005953,10.8888889 14.4782609,10.3665544 14.4782609,9.72222222 C14.4782609,9.07789001 15.0005953,8.55555556 15.6449275,8.55555556 L24.2681159,8.55555556 Z M30.5289855,4.27777778 C31.1733177,4.27777778 31.6956522,4.80011224 31.6956522,5.44444444 C31.6956522,6.08877665 31.1733177,6.61111111 30.5289855,6.61111111 L15.6449275,6.61111111 C15.0005953,6.61111111 14.4782609,6.08877665 14.4782609,5.44444444 C14.4782609,4.80011224 15.0005953,4.27777778 15.6449275,4.27777778 L30.5289855,4.27777778 Z" id="Text" fill="#80CFFE"></path>
                    </g>
                    <g id="Z/ClubLines" transform="translate(141.000000, 36.000000)">
                        <path d="M28.2198068,0 C32.3005774,-4.30233909e-15 35.6086957,3.30811824 35.6086957,7.38888889 C35.6086957,11.4696595 32.3005774,14.7777778 28.2198068,14.7777778 L7.38888889,14.7777778 L7.313,14.776 L7.23913043,14.7777778 C3.32266218,14.7777778 0.132603817,11.6868457 0.00402853471,7.82564062 L0,7.58333333 C0,7.55552167 0.000158789427,7.52774687 0.000475516428,7.50000977 C0.000278802977,7.4637494 4.58787135e-18,7.4263517 0,7.38888889 C-4.99750272e-16,3.30811824 3.30811824,-1.38553012e-16 7.38888889,0 L28.2198068,0 Z" id="Base" fill="#DFF3FE"></path>
                        <g id="Club" transform="translate(2.565217, 2.555556)" fill="#009FFD">
                            <path d="M5.06521739,5.53009259 L5.5944779,5.53381998 C8.38055744,5.57522235 9.61413043,5.97471811 9.61413043,7.38479345 C9.61413043,8.9412369 7.54047907,10.0509259 5.06521739,10.0509259 C2.58995572,10.0509259 0.516304348,8.9412369 0.516304348,7.38479345 C0.516304348,5.97471811 1.74987734,5.57522235 4.53595688,5.53381998 L5.06521739,5.53009259 Z M5.06521739,6.53472222 L5.06521739,9.0462963 L5.06521739,9.0462963 C7.05625848,9.0462963 8.60326087,8.21843699 8.60326087,7.38479345 C8.60326087,6.8414169 7.71096586,6.57337911 5.56851595,6.53862337 L5.06521739,6.53472222 Z M5.06521739,0.00462962963 C6.460937,0.00462962963 7.5923913,1.12909964 7.5923913,2.5162037 C7.5923913,3.90330776 6.460937,5.02777778 5.06521739,5.02777778 C3.66949778,5.02777778 2.53804348,3.90330776 2.53804348,2.5162037 C2.53804348,1.12909964 3.66949778,0.00462962963 5.06521739,0.00462962963 Z M5.06521739,1.00925926 C4.22778562,1.00925926 3.54891304,1.68394127 3.54891304,2.5162037 C3.54891304,3.34846614 4.22778562,4.02314815 5.06521739,4.02314815 C5.90264916,4.02314815 6.58152174,3.34846614 6.58152174,2.5162037 C6.58152174,1.68394127 5.90264916,1.00925926 5.06521739,1.00925926 Z" id="Person"></path>
                        </g>
                        <path d="M24.2681159,8.55555556 C24.9124482,8.55555556 25.4347826,9.07789001 25.4347826,9.72222222 C25.4347826,10.3665544 24.9124482,10.8888889 24.2681159,10.8888889 L15.6449275,10.8888889 C15.0005953,10.8888889 14.4782609,10.3665544 14.4782609,9.72222222 C14.4782609,9.07789001 15.0005953,8.55555556 15.6449275,8.55555556 L24.2681159,8.55555556 Z M30.5289855,4.27777778 C31.1733177,4.27777778 31.6956522,4.80011224 31.6956522,5.44444444 C31.6956522,6.08877665 31.1733177,6.61111111 30.5289855,6.61111111 L15.6449275,6.61111111 C15.0005953,6.61111111 14.4782609,6.08877665 14.4782609,5.44444444 C14.4782609,4.80011224 15.0005953,4.27777778 15.6449275,4.27777778 L30.5289855,4.27777778 Z" id="Text" fill="#80CFFE"></path>
                    </g>
                    <g id="Z/ClubLines" transform="translate(14.000000, 27.000000)">
                        <path d="M28.2198068,0 C32.3005774,1.02673143e-15 35.6086957,3.30811824 35.6086957,7.38888889 C35.6086957,11.4696595 32.3005774,14.7777778 28.2198068,14.7777778 L7.38888889,14.7777778 L7.313,14.776 L7.23913043,14.7777778 C3.32266218,14.7777778 0.132603817,11.6868457 0.00402853471,7.82564062 L0,7.58333333 C0,7.55552167 0.000158789427,7.52774687 0.000475516428,7.50000977 C0.000278802977,7.4637494 4.58787135e-18,7.4263517 0,7.38888889 C-4.99750272e-16,3.30811824 3.30811824,1.63780383e-15 7.38888889,0 L28.2198068,0 Z" id="Base" fill="#DFF3FE"></path>
                        <g id="Club" transform="translate(2.565217, 2.555556)" fill="#009FFD">
                            <path d="M5.06521739,5.53009259 L5.5944779,5.53381998 C8.38055744,5.57522235 9.61413043,5.97471811 9.61413043,7.38479345 C9.61413043,8.9412369 7.54047907,10.0509259 5.06521739,10.0509259 C2.58995572,10.0509259 0.516304348,8.9412369 0.516304348,7.38479345 C0.516304348,5.97471811 1.74987734,5.57522235 4.53595688,5.53381998 L5.06521739,5.53009259 Z M5.06521739,6.53472222 L5.06521739,9.0462963 L5.06521739,9.0462963 C7.05625848,9.0462963 8.60326087,8.21843699 8.60326087,7.38479345 C8.60326087,6.8414169 7.71096586,6.57337911 5.56851595,6.53862337 L5.06521739,6.53472222 Z M5.06521739,0.00462962963 C6.460937,0.00462962963 7.5923913,1.12909964 7.5923913,2.5162037 C7.5923913,3.90330776 6.460937,5.02777778 5.06521739,5.02777778 C3.66949778,5.02777778 2.53804348,3.90330776 2.53804348,2.5162037 C2.53804348,1.12909964 3.66949778,0.00462962963 5.06521739,0.00462962963 Z M5.06521739,1.00925926 C4.22778562,1.00925926 3.54891304,1.68394127 3.54891304,2.5162037 C3.54891304,3.34846614 4.22778562,4.02314815 5.06521739,4.02314815 C5.90264916,4.02314815 6.58152174,3.34846614 6.58152174,2.5162037 C6.58152174,1.68394127 5.90264916,1.00925926 5.06521739,1.00925926 Z" id="Person"></path>
                        </g>
                        <path d="M24.2681159,8.55555556 C24.9124482,8.55555556 25.4347826,9.07789001 25.4347826,9.72222222 C25.4347826,10.3665544 24.9124482,10.8888889 24.2681159,10.8888889 L15.6449275,10.8888889 C15.0005953,10.8888889 14.4782609,10.3665544 14.4782609,9.72222222 C14.4782609,9.07789001 15.0005953,8.55555556 15.6449275,8.55555556 L24.2681159,8.55555556 Z M30.5289855,4.27777778 C31.1733177,4.27777778 31.6956522,4.80011224 31.6956522,5.44444444 C31.6956522,6.08877665 31.1733177,6.61111111 30.5289855,6.61111111 L15.6449275,6.61111111 C15.0005953,6.61111111 14.4782609,6.08877665 14.4782609,5.44444444 C14.4782609,4.80011224 15.0005953,4.27777778 15.6449275,4.27777778 L30.5289855,4.27777778 Z" id="Text" fill="#80CFFE"></path>
                    </g>
                    <g id="Z/ClubLines" transform="translate(0.000000, 74.000000)">
                        <path d="M28.2198068,0 C32.3005774,1.91490985e-15 35.6086957,3.30811824 35.6086957,7.38888889 C35.6086957,11.4696595 32.3005774,14.7777778 28.2198068,14.7777778 L7.38888889,14.7777778 L7.313,14.776 L7.23913043,14.7777778 C3.32266218,14.7777778 0.132603817,11.6868457 0.00402853471,7.82564062 L0,7.58333333 C0,7.55552167 0.000158789427,7.52774687 0.000475516428,7.50000977 C0.000278802977,7.4637494 4.58787135e-18,7.4263517 0,7.38888889 C-4.99750272e-16,3.30811824 3.30811824,-1.38553012e-16 7.38888889,0 L28.2198068,0 Z" id="Base" fill="#DFF3FE"></path>
                        <g id="Club" transform="translate(2.565217, 2.555556)" fill="#009FFD">
                            <path d="M5.06521739,5.53009259 L5.5944779,5.53381998 C8.38055744,5.57522235 9.61413043,5.97471811 9.61413043,7.38479345 C9.61413043,8.9412369 7.54047907,10.0509259 5.06521739,10.0509259 C2.58995572,10.0509259 0.516304348,8.9412369 0.516304348,7.38479345 C0.516304348,5.97471811 1.74987734,5.57522235 4.53595688,5.53381998 L5.06521739,5.53009259 Z M5.06521739,6.53472222 L5.06521739,9.0462963 L5.06521739,9.0462963 C7.05625848,9.0462963 8.60326087,8.21843699 8.60326087,7.38479345 C8.60326087,6.8414169 7.71096586,6.57337911 5.56851595,6.53862337 L5.06521739,6.53472222 Z M5.06521739,0.00462962963 C6.460937,0.00462962963 7.5923913,1.12909964 7.5923913,2.5162037 C7.5923913,3.90330776 6.460937,5.02777778 5.06521739,5.02777778 C3.66949778,5.02777778 2.53804348,3.90330776 2.53804348,2.5162037 C2.53804348,1.12909964 3.66949778,0.00462962963 5.06521739,0.00462962963 Z M5.06521739,1.00925926 C4.22778562,1.00925926 3.54891304,1.68394127 3.54891304,2.5162037 C3.54891304,3.34846614 4.22778562,4.02314815 5.06521739,4.02314815 C5.90264916,4.02314815 6.58152174,3.34846614 6.58152174,2.5162037 C6.58152174,1.68394127 5.90264916,1.00925926 5.06521739,1.00925926 Z" id="Person"></path>
                        </g>
                        <path d="M24.2681159,8.55555556 C24.9124482,8.55555556 25.4347826,9.07789001 25.4347826,9.72222222 C25.4347826,10.3665544 24.9124482,10.8888889 24.2681159,10.8888889 L15.6449275,10.8888889 C15.0005953,10.8888889 14.4782609,10.3665544 14.4782609,9.72222222 C14.4782609,9.07789001 15.0005953,8.55555556 15.6449275,8.55555556 L24.2681159,8.55555556 Z M30.5289855,4.27777778 C31.1733177,4.27777778 31.6956522,4.80011224 31.6956522,5.44444444 C31.6956522,6.08877665 31.1733177,6.61111111 30.5289855,6.61111111 L15.6449275,6.61111111 C15.0005953,6.61111111 14.4782609,6.08877665 14.4782609,5.44444444 C14.4782609,4.80011224 15.0005953,4.27777778 15.6449275,4.27777778 L30.5289855,4.27777778 Z" id="Text" fill="#80CFFE"></path>
                    </g>
                    <g id="Z/ClubLines" transform="translate(87.000000, 3.000000)">
                        <path d="M28.2198068,0 C32.3005774,-4.30233909e-15 35.6086957,3.30811824 35.6086957,7.38888889 C35.6086957,11.4696595 32.3005774,14.7777778 28.2198068,14.7777778 L7.38888889,14.7777778 L7.313,14.776 L7.23913043,14.7777778 C3.32266218,14.7777778 0.132603817,11.6868457 0.00402853471,7.82564062 L0,7.58333333 C0,7.55552167 0.000158789427,7.52774687 0.000475516428,7.50000977 C0.000278802977,7.4637494 4.58787135e-18,7.4263517 0,7.38888889 C-4.99750272e-16,3.30811824 3.30811824,-1.38553012e-16 7.38888889,0 L28.2198068,0 Z" id="Base" fill="#DFF3FE"></path>
                        <g id="Club" transform="translate(2.565217, 2.555556)" fill="#009FFD">
                            <path d="M5.06521739,5.53009259 L5.5944779,5.53381998 C8.38055744,5.57522235 9.61413043,5.97471811 9.61413043,7.38479345 C9.61413043,8.9412369 7.54047907,10.0509259 5.06521739,10.0509259 C2.58995572,10.0509259 0.516304348,8.9412369 0.516304348,7.38479345 C0.516304348,5.97471811 1.74987734,5.57522235 4.53595688,5.53381998 L5.06521739,5.53009259 Z M5.06521739,6.53472222 L5.06521739,9.0462963 L5.06521739,9.0462963 C7.05625848,9.0462963 8.60326087,8.21843699 8.60326087,7.38479345 C8.60326087,6.8414169 7.71096586,6.57337911 5.56851595,6.53862337 L5.06521739,6.53472222 Z M5.06521739,0.00462962963 C6.460937,0.00462962963 7.5923913,1.12909964 7.5923913,2.5162037 C7.5923913,3.90330776 6.460937,5.02777778 5.06521739,5.02777778 C3.66949778,5.02777778 2.53804348,3.90330776 2.53804348,2.5162037 C2.53804348,1.12909964 3.66949778,0.00462962963 5.06521739,0.00462962963 Z M5.06521739,1.00925926 C4.22778562,1.00925926 3.54891304,1.68394127 3.54891304,2.5162037 C3.54891304,3.34846614 4.22778562,4.02314815 5.06521739,4.02314815 C5.90264916,4.02314815 6.58152174,3.34846614 6.58152174,2.5162037 C6.58152174,1.68394127 5.90264916,1.00925926 5.06521739,1.00925926 Z" id="Person"></path>
                        </g>
                        <path d="M24.2681159,8.55555556 C24.9124482,8.55555556 25.4347826,9.07789001 25.4347826,9.72222222 C25.4347826,10.3665544 24.9124482,10.8888889 24.2681159,10.8888889 L15.6449275,10.8888889 C15.0005953,10.8888889 14.4782609,10.3665544 14.4782609,9.72222222 C14.4782609,9.07789001 15.0005953,8.55555556 15.6449275,8.55555556 L24.2681159,8.55555556 Z M30.5289855,4.27777778 C31.1733177,4.27777778 31.6956522,4.80011224 31.6956522,5.44444444 C31.6956522,6.08877665 31.1733177,6.61111111 30.5289855,6.61111111 L15.6449275,6.61111111 C15.0005953,6.61111111 14.4782609,6.08877665 14.4782609,5.44444444 C14.4782609,4.80011224 15.0005953,4.27777778 15.6449275,4.27777778 L30.5289855,4.27777778 Z" id="Text" fill="#80CFFE"></path>
                    </g>
                    <g id="4.-Illustratie/Object---Electronics/Notebook-Carry" filter="url(#filter-6)" transform="translate(117.934440, 126.500000) scale(-1, 1) translate(-117.934440, -126.500000) translate(104.934440, 114.500000)">
                        <path d="M25.0026636,23.2214965 L1,23.2214965 C0.44771525,23.2214965 6.76353751e-17,22.7737813 0,22.2214965 L0,1 C-6.76353751e-17,0.44771525 0.44771525,1.01453063e-16 1,0 L25.0026636,0 L25.0026636,0 L25.0026636,23.2214965 Z" id="Outside" fill="#F2F4F6"></path>
                        <path d="M25.4344399,0 C25.7105823,-5.07265313e-17 25.9344399,0.223857625 25.9344399,0.5 L25.9344399,22.7214965 C25.9344399,22.9976389 25.7105823,23.2214965 25.4344399,23.2214965 L24.5708874,23.2214965 C24.294745,23.2214965 24.0708874,22.9976389 24.0708874,22.7214965 L24.0708874,0.5 C24.0708874,0.223857625 24.294745,5.07265313e-17 24.5708874,0 L25.4344399,0 Z M12.4236838,9.28859861 C13.2813602,9.28859861 13.9766443,10.3282604 13.9766443,11.6107483 C13.9766443,12.8932361 13.2813602,13.9328979 12.4236838,13.9328979 C11.5660074,13.9328979 10.8707233,12.8932361 10.8707233,11.6107483 C10.8707233,10.3282604 11.5660074,9.28859861 12.4236838,9.28859861 Z" id="Logo-+-Inside" fill="#BFC8D3"></path>
                    </g>
                    <g id="4.-Illustratie/People/Arms/Bent-3" transform="translate(124.129830, 110.128394) scale(-1, 1) translate(-124.129830, -110.128394) translate(113.629830, 78.128394)">
                        <g id="4.-Illustratie/People/Hand/Open" transform="translate(14.346136, 56.444954) scale(-1, -1) rotate(-30.000000) translate(-14.346136, -56.444954) translate(10.846136, 49.944954)" fill="#FED1C9">
                            <path d="M1.5447202,0.642622951 L2.65459073,0.713529508 L3.69490757,0.78142459 C3.84243748,0.95362623 3.99458619,1.12117377 4.1516254,1.28461475 C4.30513259,1.44668689 4.46298688,1.60437869 4.62328642,1.75632131 C4.81890619,1.94399098 5.01972212,2.12503883 5.22435874,2.30027334 L5.43021799,2.4736 L6.61453272,7.18217869 L4.480647,12.2584311 C4.37577306,12.5056459 4.28720078,12.6663492 4.02881965,12.673741 C4.00454831,12.674471 3.98124299,12.6742277 3.95753516,12.6726053 L3.92150047,12.6690869 L2.26661151,12.6838705 C1.79153491,12.6684872 1.35046629,12.436819 1.06286774,12.056503 L0.936641232,11.8766333 C0.865200026,11.7721342 0.753031482,11.6053544 0.618535951,11.3959887 C0.466078424,10.4466395 0.404672029,9.73115386 0.434316764,9.24953193 C0.460032578,8.83174106 0.604479797,8.19810746 0.867658422,7.34863115 L1.16597858,5.24744262 L0.936125343,1.92961803 L0.948894967,1.35114098 L1.5447202,0.642622951 Z" id="Path"></path>
                        </g>
                        <path d="M9.18914573,1.63114754 C10.8415894,5.8918377 12.3062925,10.2206967 13.5715721,14.6021197 C14.204076,16.7928311 14.7868599,18.9966836 15.3185654,21.2112131 C15.5856407,22.3180672 15.8355993,23.4287541 16.0776788,24.5408098 L16.4297944,26.2266885 C16.4895671,26.5595934 16.5612943,26.8935934 16.6058522,27.2251295 C16.6444327,27.556118 16.6976848,27.8892967 16.7194203,28.2175475 C16.9378624,30.8566951 16.5963429,33.3507443 16.0453472,35.6994213 C15.4818535,38.0494672 14.6928538,40.2727574 13.7940896,42.4172016 C11.9789011,46.6965082 9.72710011,50.6700131 7.29924134,54.4858262 L4.08618653,52.5516377 C6.18855573,48.7117328 8.0792752,44.7667 9.48148862,40.7329656 C10.1743087,38.7182885 10.7410626,36.6811623 11.084484,34.6645689 C11.4221998,32.653177 11.526802,30.6521885 11.2483156,28.8521475 C11.2192443,28.6251918 11.1643621,28.410282 11.1263249,28.1893492 C11.0825821,27.9708803 11.0179189,27.7636361 10.9679272,27.5506426 L10.5103943,25.9931623 C10.1930555,24.9481803 9.86865275,23.9053885 9.52822001,22.8686197 C8.84952806,20.7937131 8.12437642,18.7363279 7.35358017,16.6981066 C5.81171597,12.6216639 4.08808839,8.62160328 2.19628214,4.71024426 L9.18914573,1.63114754 Z" id="Arm" fill="#FDDBD5" transform="translate(9.491243, 28.058487) scale(-1, 1) translate(-9.491243, -28.058487) "></path>
                        <g id="Sleeve" transform="translate(9.429224, 27.635353) rotate(-1.000000) translate(-9.429224, -27.635353) translate(0.929224, 0.635353)" fill="#3D4A9A">
                            <path d="M8.36947962,0.723317056 C10.1786886,5.0753584 11.7823462,9.49703017 13.1676613,13.9723929 C13.8601701,16.2100742 14.498242,18.4611783 15.0803897,20.7231884 C15.3728021,21.8537739 15.646474,22.9882745 15.9115192,24.1241732 L16.2970396,25.8461979 C16.3624829,26.1862405 16.4410148,26.5274016 16.4897998,26.8660459 C16.5320404,27.204131 16.5903444,27.5444532 16.614142,27.8797419 C16.8533074,30.575474 16.4793884,33.1229967 15.8761204,35.5220305 C15.2591688,37.9224625 14.3953176,40.193421 13.4112888,42.3838432 C11.4238956,46.7549 10.3047669,49.1513259 7.64658018,53.0489518 L3.80247085,50.4922601 C6.03703498,46.6865639 7.6660636,43.4103093 8.68955671,40.6634963 C9.44810373,38.6056236 10.0686249,36.5248205 10.4446263,34.4649903 C10.8143808,32.4104733 10.7495324,30.3742405 10.4446263,28.5356058 C10.4127971,28.3037841 9.11345063,23.4751281 8.74072145,22.4161305 C7.99764285,20.296737 7.20369697,18.1952404 6.35977624,16.1133187 C4.67163729,11.9494752 2.7844913,7.86365142 0.713211749,3.86843105 L8.36947962,0.723317056 Z" id="4.-Illustratie/People/Arms/Bent-2-Sleeve" transform="translate(8.700237, 26.886134) scale(-1, 1) translate(-8.700237, -26.886134) "></path>
                        </g>
                    </g>
                </g>
            </g>
        </g>
    </g>
</svg>
