<?xml version="1.0" encoding="UTF-8"?>
<svg width="315px" height="227px" viewBox="0 0 315 227" version="1.1" xmlns="http://www.w3.org/2000/svg" xmlns:xlink="http://www.w3.org/1999/xlink">
    <title>4.1. Illustrations/Interface-app/SL Club/MessageSent</title>
    <defs>
        <rect id="path-1" x="0" y="0" width="150" height="100" rx="12"></rect>
    </defs>
    <g id="4.1.-Illustrations/Interface-app/SL-Club/MessageSent" stroke="none" stroke-width="1" fill="none" fill-rule="evenodd">
        <path d="M190.982051,47 C200.453425,47 208.843076,51.6314093 214.009833,58.7530575 C218.792951,55.0954552 224.77227,52.9230769 231.258974,52.9230769 C241.783609,52.9230769 250.972558,58.6418288 255.887946,67.1414572 L256.135897,67.1384615 C271.837778,67.1384615 284.566667,79.8673505 284.566667,95.5692308 C284.566667,110.067164 273.714927,122.030538 259.690904,123.779894 L259.689744,124 L162.551282,124 C146.849402,124 134.120513,111.271111 134.120513,95.5692308 C134.120513,79.8673505 146.849402,67.1384615 162.551282,67.1384615 C162.960809,67.1384615 163.368315,67.1471202 163.773624,67.1642646 C167.312339,55.4942617 178.155224,47 190.982051,47 Z M55.5666667,13 C63.5619825,13 70.6441551,16.9096312 75.0057028,22.9214122 C79.0434,19.8338258 84.0908769,18 89.5666667,18 C98.4510987,18 106.208004,22.8275178 110.357357,30.0025288 L110.566667,30 C123.821501,30 134.566667,40.745166 134.566667,54 C134.566667,66.2385153 125.406107,76.3374672 113.567647,77.8141965 L113.566667,78 L31.5666667,78 C18.3118327,78 7.56666667,67.254834 7.56666667,54 C7.56666667,40.745166 18.3118327,30 31.5666667,30 C31.9123716,30 32.2563694,30.0073093 32.5985139,30.0217818 C35.5857405,20.1704807 44.7388258,13 55.5666667,13 Z" id="Clouds" fill="#DFF3FE"></path>
        <path d="M233.93517,194.137255 L235.158202,194.145708 L236.370978,194.162488 L237.572887,194.187466 L239.354033,194.240015 L240.526092,194.284913 L241.685139,194.33755 L242.83056,194.397796 L244.521805,194.502147 L245.630483,194.580844 L246.723392,194.666693 L247.799919,194.759563 L248.85945,194.859323 L250.415542,195.021596 L251.429905,195.138011 L252.425129,195.260858 L253.880738,195.456906 L254.825433,195.595264 L256.202376,195.813965 L257.529361,196.045671 L259.011613,196.331843 L260.02519,196.546333 L260.80803,196.723778 L261.565296,196.906284 L262.296376,197.093721 L263.000658,197.285957 L263.677529,197.482863 L264.005493,197.583026 L264.640098,197.78669 L264.946585,197.890159 L265.680644,198.153474 L266.367804,198.423217 L266.88296,198.643468 C267.132741,198.754559 267.370749,198.867083 267.59664,198.980966 L268.032162,199.210522 C269.63895,200.097265 270.52,201.061006 270.52,202.068628 C270.52,203.076249 269.63895,204.039991 268.032162,204.926734 L267.59664,205.156289 C267.370749,205.270172 267.132741,205.382696 266.88296,205.493787 L266.367804,205.714038 L265.821866,205.930339 L265.097091,206.194959 L264.326375,206.452948 L264.005493,206.554229 L264.005493,206.554229 L263.000658,206.851298 L262.296376,207.043535 L261.565296,207.230971 L260.80803,207.413478 L260.02519,207.590923 L258.804322,207.847315 L257.529361,208.091584 L256.202376,208.32329 L255.289837,208.470563 L254.355708,208.611926 L252.915372,208.812602 L251.929948,208.938617 L250.925078,209.058264 L249.901374,209.171413 L248.85945,209.277933 L247.799919,209.377693 L246.178947,209.514373 L245.078077,209.596662 L243.961744,209.671734 L242.83056,209.739459 L241.685139,209.799705 L240.526092,209.852343 L239.354033,209.897241 L238.169575,209.934268 L236.370978,209.974767 L235.158202,209.991547 L233.93517,210 L232.70483,210 L231.493979,209.991673 L229.696722,209.963917 L227.924073,209.918221 L226.756969,209.878003 L225.602288,209.830128 L224.460625,209.774724 L223.332573,209.711918 L222.218728,209.641836 L220.575899,209.523348 L219.500172,209.435632 L217.917306,209.291286 L216.883412,209.186728 L215.867292,209.075654 L214.86954,208.958191 L213.890751,208.834468 L212.93152,208.704609 L211.99244,208.568743 L211.074107,208.426996 L210.177114,208.279494 L209.302057,208.126364 L208.44953,207.967734 L207.620127,207.803729 L206.814443,207.634478 L206.033073,207.460105 L205.276611,207.280739 L204.545652,207.096506 L203.840789,206.907533 L203.162618,206.713947 L202.196709,206.415194 L201.587868,206.210628 L201.0078,206.001893 C200.819305,205.931634 200.635705,205.860701 200.457098,205.789115 L199.936358,205.57242 L199.446174,205.351937 C197.309988,204.351424 196.12,203.239659 196.12,202.068628 C196.12,201.061006 197.00105,200.097265 198.607838,199.210522 L199.04336,198.980966 C199.269251,198.867083 199.507259,198.754559 199.75704,198.643468 L200.272196,198.423217 L200.818134,198.206917 L201.542909,197.942296 L202.313625,197.684307 L202.634507,197.583026 L202.634507,197.583026 L203.639342,197.285957 L204.343624,197.093721 L205.074704,196.906284 L205.83197,196.723778 L206.61481,196.546333 L207.628387,196.331843 L208.679769,196.12572 L209.110639,196.045671 L210.437624,195.813965 L211.350163,195.666692 L212.284292,195.52533 L213.724628,195.324654 L214.710052,195.198639 L215.714922,195.078991 L216.738626,194.965843 L217.78055,194.859323 L218.840081,194.759563 L220.461053,194.622883 L221.561923,194.540593 L222.678256,194.465521 L223.80944,194.397796 L224.954861,194.33755 L226.113908,194.284913 L227.285967,194.240015 L228.470425,194.202987 L230.269022,194.162488 L231.481798,194.145708 L232.70483,194.137255 L233.93517,194.137255 Z M155.611725,167.94847 L158.5,167.942857 L158.5,167.942857 L161.388275,167.94847 C161.867744,167.950336 162.346238,167.952664 162.823727,167.955453 L165.67636,167.977664 C166.623058,167.986886 167.565495,167.997916 168.503431,168.010726 L171.303498,168.054465 L171.303498,168.054465 L174.07512,168.108708 C174.534606,168.118614 174.992847,168.128951 175.449813,168.139715 L178.176065,168.20939 L178.176065,168.20939 L180.870269,168.289137 C181.762835,168.317378 182.64982,168.34727 183.530984,168.378782 L186.156768,168.478154 C186.591407,168.495517 187.024532,168.513278 187.45611,168.531433 L190.026796,168.645069 L190.026796,168.645069 L192.558949,168.767999 C192.977683,168.789252 193.394752,168.810886 193.810125,168.832895 L196.281774,168.969441 L196.281774,168.969441 L198.711288,169.114848 L198.711288,169.114848 L201.097223,169.268943 L201.097223,169.268943 L203.43814,169.431554 C204.210782,169.487157 204.975681,169.544151 205.732596,169.602507 L207.979151,169.781629 L207.979151,169.781629 L210.176364,169.968748 L210.176364,169.968748 L212.322792,170.16369 L212.322792,170.16369 L214.416995,170.366283 C215.106199,170.43507 215.786458,170.505103 216.457533,170.576354 L218.442962,170.793729 L218.442962,170.793729 L220.371843,171.018236 C236.206229,172.918362 246,175.543362 246,178.442857 C246,180.936423 238.756527,183.226972 226.656798,185.028039 L224.937187,185.276145 C224.645413,185.316957 224.351072,185.357497 224.054194,185.397761 L222.242734,185.636013 C221.322027,185.753456 220.379032,185.868355 219.414562,185.980612 L217.457226,186.201575 C216.464481,186.310266 215.450801,186.416251 214.416995,186.519431 L212.322792,186.722024 C211.969366,186.755157 211.613764,186.787971 211.256016,186.820462 L209.084015,187.011514 C208.717803,187.042702 208.349505,187.07356 207.979151,187.104085 L205.732596,187.283207 L205.732596,187.283207 L203.43814,187.45416 L203.43814,187.45416 L201.097223,187.616771 L201.097223,187.616771 L198.711288,187.770866 L198.711288,187.770866 L196.281774,187.916273 L196.281774,187.916273 L193.810125,188.052819 L193.810125,188.052819 L191.297779,188.180331 L191.297779,188.180331 L188.74618,188.298636 C188.317722,188.317576 187.887689,188.336126 187.45611,188.354281 L184.848332,188.458451 L184.848332,188.458451 L182.204903,188.552981 C181.76144,188.567923 181.316552,188.582457 180.870269,188.596578 L178.176065,188.676324 C177.724321,188.688781 177.27124,188.700818 176.816855,188.712432 L174.07512,188.777006 L174.07512,188.777006 L171.303498,188.831249 C170.83915,188.839419 170.373618,188.847151 169.90693,188.854442 L167.093181,188.892864 C166.621993,188.898376 166.149709,188.903439 165.67636,188.90805 L162.823727,188.930262 C161.868749,188.935838 160.909751,188.939577 159.946972,188.94145 L158.5,188.942857 C157.050253,188.942857 155.60874,188.938626 154.176273,188.930262 L151.32364,188.90805 L151.32364,188.90805 L148.496569,188.874988 C147.558633,188.862178 146.625197,188.847589 145.696502,188.831249 L142.92488,188.777006 L142.92488,188.777006 L140.183145,188.712432 C139.72876,188.700818 139.275679,188.688781 138.823935,188.676324 L136.129731,188.596578 L136.129731,188.596578 L133.469016,188.506932 C133.028435,188.491176 132.589309,188.475014 132.151668,188.458451 L129.54389,188.354281 L129.54389,188.354281 L126.973204,188.240645 C126.547927,188.220926 126.124256,188.20082 125.702221,188.180331 L123.189875,188.052819 L123.189875,188.052819 L120.718226,187.916273 L120.718226,187.916273 L118.288712,187.770866 L118.288712,187.770866 L115.902777,187.616771 L115.902777,187.616771 L113.56186,187.45416 L113.56186,187.45416 L111.267404,187.283207 L111.267404,187.283207 L109.020849,187.104085 C108.650495,187.07356 108.282197,187.042702 107.915985,187.011514 L105.743984,186.820462 C105.386236,186.787971 105.030634,186.755157 104.677208,186.722024 L102.583005,186.519431 C101.549199,186.416251 100.535519,186.310266 99.542774,186.201575 L97.5854385,185.980612 C96.620968,185.868355 95.6779734,185.753456 94.7572655,185.636013 L92.9458055,185.397761 C92.6489282,185.357497 92.3545872,185.316957 92.0628126,185.276145 L90.3432015,185.028039 C78.2434731,183.226972 71,180.936423 71,178.442857 C71,175.543362 80.7937711,172.918362 96.6281566,171.018236 L98.5570377,170.793729 L98.5570377,170.793729 L100.542467,170.576354 C101.213542,170.505103 101.893801,170.43507 102.583005,170.366283 L104.677208,170.16369 L104.677208,170.16369 L106.823636,169.968748 L106.823636,169.968748 L109.020849,169.781629 L109.020849,169.781629 L111.267404,169.602507 C112.024319,169.544151 112.789218,169.487157 113.56186,169.431554 L115.902777,169.268943 L115.902777,169.268943 L118.288712,169.114848 L118.288712,169.114848 L120.718226,168.969441 L120.718226,168.969441 L123.189875,168.832895 C123.605248,168.810886 124.022317,168.789252 124.441051,168.767999 L126.973204,168.645069 L126.973204,168.645069 L129.54389,168.531433 L129.54389,168.531433 L132.151668,168.427263 C133.026949,168.394137 133.908173,168.362617 134.795097,168.332733 L137.472737,168.248015 C137.921781,168.234723 138.37219,168.221846 138.823935,168.20939 L141.550187,168.139715 C142.007153,168.128951 142.465394,168.118614 142.92488,168.108708 L145.696502,168.054465 L145.696502,168.054465 L148.496569,168.010726 C149.434505,167.997916 150.376942,167.986886 151.32364,167.977664 L154.176273,167.955453 C154.653762,167.952664 155.132256,167.950336 155.611725,167.94847 L155.611725,167.94847 Z" id="Shadows" fill="#002451" opacity="0.0352725074"></path>
        <g id="Base" transform="translate(106.800000, 92.000000) scale(-1, 1) rotate(10.000000) translate(-106.800000, -92.000000) translate(31.800000, 42.000000)">
            <mask id="mask-2" fill="white">
                <use xlink:href="#path-1"></use>
            </mask>
            <use id="Mask" fill="#F2F4F6" xlink:href="#path-1"></use>
            <path d="M0,0 L150,0 L82.1334445,55.3457204 C78.0947379,58.639318 72.2991088,58.6468835 68.2518173,55.3638412 L0,0 L0,0 Z" fill="#FAFBFC" mask="url(#mask-2)"></path>
        </g>
        <g id="List" transform="translate(82.800000, 78.000000)">
            <rect id="Base" fill="#EFF9FE" x="0" y="0" width="150" height="100" rx="12"></rect>
            <rect id="Rectangle" fill="#80CFFE" x="125" y="7" width="18" height="20" rx="4"></rect>
            <path d="M88.2,62 C90.409139,62 92.2,63.790861 92.2,66 C92.2,68.209139 90.409139,70 88.2,70 L25.2,70 C22.990861,70 21.2,68.209139 21.2,66 C21.2,63.790861 22.990861,62 25.2,62 L88.2,62 Z M79.2,46 C81.409139,46 83.2,47.790861 83.2,50 C83.2,52.209139 81.409139,54 79.2,54 L25.2,54 C22.990861,54 21.2,52.209139 21.2,50 C21.2,47.790861 22.990861,46 25.2,46 L79.2,46 Z M88.2,30 C90.409139,30 92.2,31.790861 92.2,34 C92.2,36.209139 90.409139,38 88.2,38 L25.2,38 C22.990861,38 21.2,36.209139 21.2,34 C21.2,31.790861 22.990861,30 25.2,30 L88.2,30 Z" id="Shape" fill-opacity="0.3" fill="#80CFFE"></path>
        </g>
        <g id="CheckRound" transform="translate(179.000000, 103.000000)">
            <path d="M55,13 C78.1959595,13 97,31.8040405 97,55 C97,78.1959595 78.1959595,97 55,97 C31.8040405,97 13,78.1959595 13,55 C13,31.8040405 31.8040405,13 55,13 Z" id="Ball" fill="#FFFFFF"></path>
            <g id="2.-Icons/CheckboxCheck" fill="#009FFD">
                <path d="M55,9.16666667 C80.313051,9.16666667 100.833333,29.686949 100.833333,55 C100.833333,80.313051 80.313051,100.833333 55,100.833333 C29.686949,100.833333 9.16666667,80.313051 9.16666667,55 C9.16666667,29.686949 29.686949,9.16666667 55,9.16666667 Z M55,18.3333333 C34.7495592,18.3333333 18.3333333,34.7495592 18.3333333,55 C18.3333333,75.2504408 34.7495592,91.6666667 55,91.6666667 C75.2504408,91.6666667 91.6666667,75.2504408 91.6666667,55 C91.6666667,34.7495592 75.2504408,18.3333333 55,18.3333333 Z M68.0894895,39.4660677 C69.41614,37.3102607 72.2392296,36.6380965 74.3950366,37.964747 C76.5508437,39.2913975 77.2230079,42.1144871 75.8963574,44.2702941 L75.8963574,44.2702941 L57.5630241,74.0619608 C56.1715595,76.3230908 53.1560223,76.9326312 50.9955817,75.3894594 L50.9955817,75.3894594 L34.9539151,63.931126 C32.8941074,62.4598348 32.4170205,59.5973136 33.8883117,57.5375059 C35.3596029,55.4776982 38.2221241,55.0006113 40.2819318,56.4719025 L40.2819318,56.4719025 L52.3289624,65.0769243 Z" id="RoundIcon"></path>
            </g>
        </g>
    </g>
</svg>