<?xml version="1.0" encoding="UTF-8"?>
<svg width="315px" height="227px" viewBox="0 0 315 227" version="1.1" xmlns="http://www.w3.org/2000/svg" xmlns:xlink="http://www.w3.org/1999/xlink">
    <title>4.1. Illustrations/Interface-app/SL Club/LostPassword</title>
    <g id="4.1.-Illustrations/Interface-app/SL-Club/LostPassword" stroke="none" stroke-width="1" fill="none" fill-rule="evenodd">
        <g id="4.2.-IllustrationParts/Non-objects/Cloud-1-Copy-2" transform="translate(25.566667, 50.000000)" fill="#DFF3FE">
            <path d="M20.2473118,96 L20.24716,95.9875013 C9.00041004,95.5982212 0,86.1647995 0,74.5846154 C0,62.7572251 9.38878136,53.1692308 20.9704301,53.1692308 C23.2482777,53.1692308 25.4413009,53.5401132 27.4947541,54.2259711 L27.482951,53.7309741 L27.482951,53.7309741 L27.4784946,53.1692308 C27.4784946,34.4085427 42.3710444,19.2 60.7419355,19.2 C70.7851567,19.2 79.7887982,23.7454116 85.8878798,30.9316831 C90.6740012,17.2080892 103.509338,7.38461538 118.591398,7.38461538 C132.608091,7.38461538 144.684258,15.8692837 150.16377,28.0836968 C157.540639,26.1698402 165.696044,25.1076923 174.271505,25.1076923 C189.237472,25.1076923 202.924055,28.3427319 213.43573,33.6933457 C219.241546,29.2302283 226.463396,26.5846154 234.290323,26.5846154 C253.459948,26.5846154 269,42.454399 269,62.0307692 C269,81.6071394 253.459948,97.4769231 234.290323,97.4769231 C230.833914,97.4769231 227.495505,96.9609894 224.344912,96.000421 L20.2473118,96 Z" id="4.-Illustratie/Non-objects/Cloud"></path>
        </g>
        <path d="M243.880694,190 L245.393045,190.007993 L246.892715,190.023861 L248.378947,190.047479 L250.581439,190.097171 L252.030759,190.139626 L253.463989,190.189401 L254.88037,190.246371 L256.971695,190.345046 L258.342641,190.419463 L259.694087,190.500642 L261.025276,190.588461 L262.335449,190.682796 L264.259648,190.836244 L265.513969,190.946326 L266.744622,191.062492 L268.544569,191.247877 L269.712739,191.37871 L271.415411,191.585517 L273.056307,191.804621 L274.889198,192.075228 L276.142547,192.278052 L277.110574,192.445846 L278.046979,192.618426 L278.951003,192.795669 L279.821889,192.97745 L280.658879,193.163646 L281.064427,193.258362 L281.849153,193.450949 L282.228143,193.548791 L283.13585,193.797784 L283.985564,194.052856 L284.622585,194.261128 C284.931454,194.366178 285.225765,194.472581 285.505092,194.58027 L286.043642,194.797341 C288.03053,195.635856 289.12,196.547181 289.12,197.5 C289.12,198.452819 288.03053,199.364144 286.043642,200.202659 L285.505092,200.41973 C285.225765,200.527419 284.931454,200.633822 284.622585,200.738872 L283.985564,200.947144 L283.310479,201.15168 L282.414253,201.401908 L281.461217,201.645866 L281.064427,201.741638 L281.064427,201.741638 L279.821889,202.02255 L278.951003,202.204331 L278.046979,202.381574 L277.110574,202.554154 L276.142547,202.721948 L274.632872,202.964395 L273.056307,203.195379 L271.415411,203.414483 L270.287003,203.553746 L269.131897,203.68742 L267.350837,203.877182 L266.132301,203.996343 L264.88972,204.109483 L263.62385,204.216478 L262.335449,204.317204 L261.025276,204.411539 L259.020849,204.540785 L257.659558,204.618599 L256.279146,204.689588 L254.88037,204.753629 L253.463989,204.810599 L252.030759,204.860374 L250.581439,204.902829 L249.116786,204.937843 L246.892715,204.976139 L245.393045,204.992007 L243.880694,205 L242.359306,205 L240.862017,204.992126 L238.639603,204.965879 L236.447618,204.922669 L235.004424,204.884638 L233.576593,204.839367 L232.164858,204.786977 L230.769956,204.727586 L229.392621,204.661316 L227.361166,204.549272 L226.030965,204.466327 L224.073658,204.329832 L222.795187,204.23096 L221.538695,204.125927 L220.304916,204.014853 L219.094585,203.897859 L217.908439,203.775063 L216.747211,203.646586 L215.611637,203.512548 L214.502453,203.373069 L213.420393,203.228268 L212.366193,203.078265 L211.340587,202.92318 L210.344312,202.763134 L209.378101,202.598245 L208.442691,202.428635 L207.538816,202.254422 L206.667212,202.075727 L205.828614,201.892669 L204.63421,201.610165 L203.881342,201.416725 L203.164053,201.219343 C202.930968,201.152905 202.703936,201.085829 202.483078,201.018137 L201.839152,200.813228 L201.233011,200.604736 C200.949991,200.503369 200.680402,200.400793 200.424616,200.297071 L199.931556,200.088115 C198.112881,199.281389 197.12,198.409602 197.12,197.5 C197.12,196.547181 198.20947,195.635856 200.196358,194.797341 L200.734908,194.58027 C201.014235,194.472581 201.308546,194.366178 201.617415,194.261128 L202.254436,194.052856 L202.929521,193.84832 L203.825747,193.598092 L204.778783,193.354134 L205.175573,193.258362 L205.175573,193.258362 L206.418111,192.97745 L207.288997,192.795669 L208.193021,192.618426 L209.129426,192.445846 L210.097453,192.278052 L211.350802,192.075228 L212.650897,191.880316 L213.183693,191.804621 L214.824589,191.585517 L215.952997,191.446254 L217.108103,191.31258 L218.889163,191.122818 L220.107699,191.003657 L221.35028,190.890517 L222.61615,190.783522 L223.904551,190.682796 L225.214724,190.588461 L227.219151,190.459215 L228.580442,190.381401 L229.960854,190.310412 L231.35963,190.246371 L232.776011,190.189401 L234.209241,190.139626 L235.658561,190.097171 L237.123214,190.062157 L239.347285,190.023861 L240.846955,190.007993 L242.359306,190 L243.880694,190 Z M149.710752,166.948737 L152.5,166.942857 L152.5,166.942857 L155.289248,166.948737 L155.289248,166.948737 L158.055898,166.966255 C158.515046,166.970134 158.973194,166.974491 159.430314,166.979322 L162.160456,167.013958 L162.160456,167.013958 L164.864521,167.05978 C165.761375,167.076898 166.65365,167.09585 167.541116,167.116606 L170.188849,167.184255 L170.188849,167.184255 L172.806328,167.262546 C173.239977,167.276472 173.672306,167.290833 174.103288,167.305626 L176.672778,167.399541 L176.672778,167.399541 L179.208536,167.503644 L179.208536,167.503644 L181.709168,167.617756 L181.709168,167.617756 L184.173284,167.741694 L184.173284,167.741694 L186.599492,167.875278 C187.000623,167.898336 187.400117,167.921788 187.797945,167.94563 L190.164681,168.093342 C190.946772,168.144122 191.721965,168.196434 192.490029,168.250247 L194.772597,168.416164 C201.177955,168.898854 207.051416,169.487876 212.250523,170.164683 L214.057269,170.40717 C228.283521,172.375751 237,175.026794 237,177.942857 C237,180.858921 228.283521,183.509963 214.057269,185.478544 L212.250523,185.721032 C211.333033,185.840468 210.394543,185.957171 209.435835,186.071038 L207.491695,186.294961 C204.535744,186.625083 201.402531,186.929072 198.113193,187.204176 L195.897404,187.38327 L195.897404,187.38327 L193.636747,187.553624 C192.875872,187.608932 192.10775,187.662753 191.332615,187.715057 L188.986399,187.867388 C188.591934,187.892008 188.195773,187.916241 187.797945,187.940084 L185.391213,188.078423 C184.582458,188.122953 183.767269,188.165891 182.945878,188.207206 L180.463329,188.326254 C180.046548,188.345274 179.628273,188.36388 179.208536,188.38207 L176.672778,188.486173 L176.672778,188.486173 L174.103288,188.580088 C173.672306,188.594881 173.239977,188.609243 172.806328,188.623168 L170.188849,188.701459 L170.188849,188.701459 L167.541116,188.769108 L167.541116,188.769108 L164.864521,188.825935 C164.416094,188.834494 163.966522,188.842594 163.515835,188.850232 L160.798558,188.890484 C159.433458,188.907806 158.058839,188.920899 156.675485,188.929662 L153.897362,188.941383 L153.897362,188.941383 L151.102638,188.941383 L151.102638,188.941383 L148.324515,188.929662 C146.941161,188.920899 145.566542,188.907806 144.201442,188.890484 L141.484165,188.850232 L141.484165,188.850232 L138.793661,188.798886 C138.347552,188.789413 137.902617,188.779486 137.458884,188.769108 L134.811151,188.701459 L134.811151,188.701459 L132.193672,188.623168 C131.760023,188.609243 131.327694,188.594881 130.896712,188.580088 L128.327222,188.486173 L128.327222,188.486173 L125.791464,188.38207 C125.371727,188.36388 124.953452,188.345274 124.536671,188.326254 L122.054122,188.207206 C121.643427,188.186549 121.234282,188.165485 120.826716,188.14402 L118.400508,188.010436 C117.999377,187.987379 117.599883,187.963927 117.202055,187.940084 L114.835319,187.792372 C114.053228,187.741592 113.278035,187.689281 112.509971,187.635467 L110.227403,187.469551 C109.850617,187.441157 109.475672,187.412396 109.102596,187.38327 L106.886807,187.204176 C103.962951,186.959639 101.162453,186.692279 98.5001587,186.40403 L96.5295828,186.183956 C95.2334502,186.034669 93.9727964,185.88028 92.749477,185.721032 L90.9427307,185.478544 C76.7164787,183.509963 68,180.858921 68,177.942857 C68,175.026794 76.7164787,172.375751 90.9427307,170.40717 L92.749477,170.164683 C97.6427545,169.527688 103.133383,168.968455 109.102596,168.502444 L111.363253,168.33209 C112.124128,168.276782 112.89225,168.222961 113.667385,168.170657 L116.013601,168.018326 C116.408066,167.993706 116.804227,167.969473 117.202055,167.94563 L119.608787,167.807292 C120.013164,167.785026 120.41915,167.763159 120.826716,167.741694 L123.290832,167.617756 L123.290832,167.617756 L125.791464,167.503644 L125.791464,167.503644 L128.327222,167.399541 L128.327222,167.399541 L130.896712,167.305626 C131.327694,167.290833 131.760023,167.276472 132.193672,167.262546 L134.811151,167.184255 L134.811151,167.184255 L137.458884,167.116606 C138.34635,167.09585 139.238625,167.076898 140.135479,167.05978 L142.839544,167.013958 L142.839544,167.013958 L145.569686,166.979322 C146.026806,166.974491 146.484954,166.970134 146.944102,166.966255 L149.710752,166.948737 L149.710752,166.948737 Z" id="Shadows" fill="#002451" opacity="0.0352725074"></path>
        <g id="Page" transform="translate(82.200000, 25.000000)">
            <rect id="Base" fill="#EFF9FE" x="0" y="0" width="150" height="154" rx="12"></rect>
            <g id="2.-Icons/ClubLogos/ClubPlaceholder1" transform="translate(34.800000, 46.000000)" fill="#80CFFE">
                <path d="M31.2748728,10.3812267 L31.3501223,10.3743832 C31.5135862,10.3595906 31.6774901,10.3452362 31.841834,10.3313203 C31.9798709,10.3196324 32.1179621,10.3082741 32.2563625,10.297224 C32.3715958,10.2880234 32.4871391,10.2790292 32.6028971,10.2702489 C32.7605523,10.2582907 32.9186433,10.2467266 33.0771328,10.2355596 C33.1936042,10.2273535 33.310069,10.2193765 33.4267482,10.2116131 C33.6055893,10.1997131 33.7852934,10.188293 33.9655033,10.1773769 C34.1074021,10.168782 34.2492146,10.1605219 34.3913388,10.1525725 C34.4923415,10.146923 34.5935998,10.1414252 34.695016,10.1360846 C34.9156534,10.1244655 35.1371581,10.1135849 35.3594103,10.1034491 C35.4404023,10.099756 35.5208975,10.0961874 35.6014905,10.0927164 C35.7006301,10.0884458 35.8005599,10.0842971 35.9006395,10.0802978 C36.3822258,10.0610526 36.8673421,10.0452653 37.3559313,10.0329381 C37.5147203,10.0289332 37.6729854,10.0253121 37.8316132,10.0220524 C37.9603521,10.0194068 38.0893722,10.0169985 38.2186313,10.0148284 C38.3419215,10.0127578 38.4660486,10.0108957 38.5903954,10.0092525 C39.0572379,10.0030837 39.5270714,10 40,10 C48.1752933,10 55.4257151,10.9214858 61.7512654,12.7644574 L63.1945928,13.2061083 C67.3857665,14.551415 70.1482079,18.3297139 69.9938453,22.5057112 C68.8234513,54.1685704 58.8255029,70 40,70 C39.6244144,70 39.2523424,69.9936985 38.8837842,69.9810955 C38.7538784,69.9766526 38.6245745,69.9714345 38.495706,69.9654356 C38.439429,69.9628166 38.3828496,69.9600286 38.3263545,69.9570896 C38.2337996,69.9522733 38.1419807,69.9470828 38.0503853,69.9414917 C37.9424741,69.9349058 37.8345274,69.927739 37.7268929,69.9200123 C37.6613156,69.9153046 37.595933,69.9103953 37.5306659,69.9052787 C37.4176456,69.8964181 37.3050595,69.8869439 37.1928195,69.876849 C37.1255071,69.8707962 37.0577917,69.864469 36.9902028,69.8579151 C36.8662161,69.8458896 36.743287,69.8331708 36.620779,69.8196967 C36.5650045,69.813563 36.5089654,69.807232 36.4530145,69.8007425 C36.3223023,69.7855802 36.1923839,69.7695933 36.0629455,69.7527453 C36.019731,69.7471212 35.9760739,69.7413342 35.9324716,69.735449 C35.8031609,69.717993 35.6748342,69.6997484 35.5469854,69.6806469 C35.4699772,69.6691429 35.392607,69.6572433 35.3154125,69.6450285 C35.2427185,69.6335243 35.1707277,69.6218317 35.0988906,69.6098638 C34.995355,69.5926167 34.8917206,69.574723 34.7884076,69.5562526 C34.7073809,69.5417662 34.6266758,69.5269485 34.5461679,69.5117772 C34.4556421,69.4947183 34.3653246,69.4772041 34.2752566,69.4592424 C34.1781241,69.4398718 34.0813348,69.4199919 33.9848353,69.3995922 C33.9188701,69.3856476 33.8529432,69.3714388 33.7871521,69.3569863 C33.6983672,69.3374822 33.6099607,69.3175648 33.5218008,69.2972049 C33.430163,69.2760425 33.3386239,69.2543614 33.2473523,69.2322006 C32.9537577,69.1609135 32.6630985,69.0847098 32.3752038,69.0035481 C32.3390776,68.9933627 32.3035189,68.9832496 32.2680025,68.9730607 C32.1891889,68.950453 32.1099597,68.9272861 32.0309419,68.9037399 C31.8784362,68.8582942 31.7268674,68.8114832 31.5760849,68.7632622 C31.3180719,68.6807452 31.0625986,68.5941842 30.8094234,68.5035021 C30.7630786,68.4869012 30.7172943,68.4703388 30.6715853,68.4536412 C30.3996028,68.3542892 30.1300078,68.2500342 29.8630881,68.1409813 C29.7783371,68.1063554 29.6938445,68.071241 29.6096217,68.0356428 C29.5417305,68.006948 29.4738669,67.9778747 29.4061793,67.9484856 C29.327315,67.9142425 29.2489598,67.8796917 29.170842,67.8447151 C29.0897576,67.8084108 29.0088256,67.7716001 28.92815,67.7343296 C28.8662683,67.7057428 28.8041913,67.6767217 28.7422669,67.647427 C28.6472991,67.6024968 28.5533063,67.5572253 28.4596676,67.5113187 C28.4009619,67.48254 28.3419009,67.4532637 28.2829815,67.4237336 C28.2036081,67.383951 28.1247065,67.3438186 28.0460604,67.303228 C27.9564677,67.2569881 27.8671311,67.2101133 27.7781266,67.1626428 C27.726451,67.1350808 27.6751455,67.1074583 27.6239509,67.079637 C27.5365568,67.0321448 27.4492513,66.9839418 27.3622705,66.9351564 C27.2965648,66.8983042 27.2309223,66.8610496 27.1654658,66.8234613 C27.0899562,66.7800987 27.0149758,66.7364582 26.940241,66.6923771 C26.8504126,66.6393949 26.7606792,66.5856179 26.6713028,66.5312007 C26.6314066,66.5069091 26.5917872,66.4826169 26.5522383,66.4581985 C26.4420528,66.3901692 26.3322082,66.321028 26.2229122,66.250903 C26.1836554,66.2257149 26.1446867,66.2005414 26.1057881,66.1752423 C26.0124547,66.1145409 25.9193778,66.0530185 25.826705,65.9907712 C25.78145,65.960374 25.7362731,65.9297915 25.6911927,65.899036 C25.4466249,65.7321814 25.2049757,65.5602943 24.9661636,65.3833191 C24.9266537,65.3540391 24.8874273,65.3247743 24.8482777,65.2953717 C24.5815238,65.0950365 24.318101,64.8881088 24.0582524,64.674771 L24.0497729,64.6678059 C23.8444534,64.4990763 23.6413667,64.3263421 23.4405128,64.1496036 C23.3884825,64.1038217 23.336327,64.0575248 23.2843229,64.0109563 C23.2230573,63.9560929 23.1622421,63.9010722 23.1016354,63.8456774 C23.0325144,63.7825029 22.9633289,63.718528 22.8944173,63.654062 C22.8387365,63.6019712 22.7835752,63.5498845 22.7285905,63.4974811 C22.6481019,63.4207728 22.5677887,63.3431869 22.4878559,63.264919 C22.4427718,63.2207746 22.3976569,63.1762623 22.3526638,63.1315315 C22.285115,63.0643787 22.2175796,62.9964676 22.1503209,62.9280602 C22.0972913,62.8741246 22.0445046,62.8199538 21.9918894,62.7654753 C21.9161641,62.6870683 21.8407833,62.6080125 21.7657581,62.5283193 C21.7307632,62.4911467 21.6958928,62.4538863 21.6610996,62.4164876 C21.5765769,62.3256353 21.4925069,62.2339641 21.4088921,62.1414764 C21.3606859,62.0881548 21.3126258,62.034556 21.2647171,61.9806858 C21.2052125,61.9137769 21.1459288,61.846435 21.0868787,61.7786741 C21.0304031,61.7138668 20.97424,61.6487921 20.9182898,61.5833356 C20.8451718,61.497795 20.7723477,61.4115188 20.6998879,61.3245894 C20.6625949,61.2798485 20.625556,61.2351261 20.5886128,61.190232 C20.5164528,61.102544 20.4444648,61.0139608 20.3728437,60.9247194 C20.3175877,60.8558677 20.2627286,60.786851 20.2080865,60.7174451 C20.1210322,60.6068658 20.0348089,60.4956654 19.9491329,60.3834835 C19.9376084,60.3683929 19.9264889,60.353804 19.9153786,60.3391985 C19.8179548,60.2111262 19.7212188,60.0817503 19.6251931,59.9511004 C19.610302,59.93084 19.5953809,59.9104847 19.580477,59.8900986 C19.5084846,59.7916209 19.4371975,59.6928505 19.3663081,59.5933669 C18.935638,58.9889919 18.5194961,58.3580449 18.1180442,57.7007529 C18.0839133,57.6448701 18.0499812,57.5889506 18.0161547,57.5328417 C17.9584288,57.4370898 17.9010317,57.3408226 17.843942,57.2440043 C17.8014971,57.1720188 17.7595727,57.1003331 17.7178153,57.0283477 C17.6738147,56.952501 17.6294318,56.8753257 17.5852391,56.797809 C17.5309326,56.702548 17.4772243,56.6073284 17.4238001,56.5115991 C17.3839112,56.4401234 17.3441776,56.3683581 17.3046025,56.2963087 C17.2451577,56.1880845 17.1861104,56.0792941 17.1274201,55.9698635 C17.0939652,55.9074862 17.0605249,55.8447095 17.0272013,55.7817235 C16.8688882,55.4824866 16.7133,55.1787107 16.5603423,54.8702172 C16.5353113,54.8197333 16.5103509,54.7691235 16.485461,54.7183873 C16.4253211,54.5957968 16.3655809,54.4724447 16.3062522,54.3483548 C16.2623344,54.2564957 16.2188052,54.16458 16.1754998,54.072263 C16.1413196,53.9993984 16.1073293,53.926393 16.073478,53.8531384 C16.0278219,53.7543391 15.9823542,53.6549441 15.93714,53.5550943 C15.8825918,53.434632 15.8283848,53.313445 15.7745472,53.1915955 C15.7350647,53.1022344 15.6958589,53.0126968 15.656851,52.9228044 C15.6197764,52.8373642 15.5831246,52.7521752 15.5466491,52.6666699 C15.5114114,52.5840676 15.4762146,52.5008755 15.4411837,52.417386 C15.0177856,51.4082829 14.6186932,50.3559969 14.243809,49.2602954 C14.1306328,48.9295013 14.0197545,48.5950348 13.9110789,48.256618 C13.7457671,47.7418374 13.5855346,47.217856 13.4304001,46.6847319 C13.4031338,46.591033 13.3759019,46.4966213 13.348829,46.4019246 C13.3110678,46.269838 13.2737618,46.1377201 13.2367625,46.0050522 C13.1987606,45.8687917 13.1610005,45.7316501 13.1235655,45.5939257 C13.0994123,45.5050613 13.0755923,45.4166947 13.0519053,45.3280894 C13.0272474,45.2358525 13.0027015,45.1432346 12.9783003,45.0503575 C12.9365698,44.8915221 12.8952406,44.7318437 12.8543348,44.571406 C12.8382406,44.5082818 12.8222793,44.4453071 12.8063829,44.3822158 C12.760981,44.2020257 12.7159798,44.0203536 12.6715117,43.8377253 C12.6564257,43.7757647 12.6415848,43.7144577 12.6268037,43.6530434 C12.5823137,43.4681962 12.5382393,43.2818308 12.4947105,43.0944872 C12.4792868,43.0281043 12.4639824,42.96182 12.4487461,42.8954137 C12.418635,42.7641768 12.3887992,42.6325061 12.359229,42.5003592 C12.3268557,42.3556905 12.294685,42.2099189 12.2628348,42.0635724 C12.2401591,41.959377 12.2177785,41.8555117 12.1955585,41.7513585 C12.1678564,41.6215104 12.1403538,41.4909736 12.1131016,41.3599875 C12.078945,41.1958135 12.0452122,41.0310845 12.0118724,40.865651 C11.9942701,40.7783054 11.9768689,40.6912257 11.9595761,40.6039516 C11.5633649,38.6043644 11.2240041,36.5025171 10.9415384,34.2986337 C10.9151516,34.0927663 10.889176,33.8853117 10.8637002,33.6769608 C10.819366,33.3143504 10.7766619,32.9500613 10.7354631,32.5830726 C10.7183421,32.4305712 10.7014057,32.2769068 10.6847315,32.1227719 C10.6677517,31.9658106 10.6510525,31.8084439 10.634625,31.6505899 C10.6184173,31.4948436 10.6025083,31.3389651 10.5868627,31.1826144 C10.5741085,31.0551562 10.5615412,30.9275075 10.5491487,30.7995455 C10.5359358,30.6631122 10.5229306,30.5264212 10.5101238,30.3893746 C10.4392315,29.6307587 10.3744061,28.8611261 10.3156585,28.0805935 C10.3056339,27.9474046 10.2957872,27.813912 10.2861176,27.6801021 C10.2730958,27.4999073 10.2603915,27.3190863 10.2480082,27.1376895 C10.218935,26.7117868 10.1916623,26.2832309 10.1661552,25.8515088 C10.1375642,25.3676009 10.1111831,24.8795451 10.0870217,24.3875085 C10.0595055,23.8272024 10.0348426,23.2610771 10.0130648,22.6897777 L10.0061799,22.5056858 L10.0037678,22.4407809 C9.95001835,20.9705396 9.91527635,19.4662101 9.89954182,17.9277924 C9.88731361,16.7321997 10.5862018,15.6434958 11.6783382,15.1568445 L11.6783382,15.1568445 L12.2752264,14.8957848 C13.9235122,14.1882619 15.6487664,13.5574257 17.4509891,13.0032762 L16.8054084,13.2061168 C17.1085031,13.1088277 17.4138201,13.0137528 17.7213594,12.9208921 C18.093693,12.8084672 18.4692428,12.6992992 18.8480492,12.5933759 C18.9602387,12.5620053 19.0726496,12.5309367 19.1853458,12.5001525 C19.3058777,12.4672278 19.4267352,12.4346286 19.5479191,12.4023545 C19.9129688,12.3051319 20.2811844,12.21081 20.6523651,12.1194421 C20.7721193,12.0899645 20.8919443,12.0608515 21.0120768,12.0320447 C21.0831224,12.0150084 21.1543895,11.9980523 21.2257645,11.9812037 C21.412184,11.9371981 21.5993025,11.8939338 21.7871564,11.8514024 C21.8162893,11.8448067 21.8448955,11.8383512 21.8735188,11.8319126 C22.0852898,11.7842743 22.2985737,11.7374406 22.5127952,11.691541 C22.6061874,11.6715308 22.6996318,11.6517245 22.7932539,11.6320953 C22.9021413,11.6092661 23.0109647,11.5867385 23.1200271,11.5644491 C23.2804429,11.5316627 23.4421145,11.4992462 23.604308,11.4673497 C23.7266497,11.443291 23.8489997,11.4195832 23.9716453,11.3961698 C24.044281,11.3823039 24.11664,11.3686126 24.1891016,11.3550236 C24.3890825,11.3175182 24.5905017,11.2806741 24.7927073,11.2446136 C24.8430587,11.2356348 24.892665,11.2268443 24.9423186,11.2181009 C25.1138818,11.187889 25.2866413,11.1581325 25.4599689,11.1289421 C25.5991755,11.1054982 25.7387081,11.082426 25.878607,11.0597187 C25.9749241,11.0440854 26.0712943,11.0286442 26.1678376,11.0133755 C26.328937,10.9878961 26.4909002,10.9628395 26.6533479,10.9382655 C26.7603433,10.9220813 26.8666944,10.9062319 26.9732524,10.8905886 C27.10584,10.8711225 27.2395505,10.8518621 27.3735851,10.8329246 C27.5537782,10.8074667 27.7340399,10.7826617 27.914884,10.758437 C27.9604281,10.7523361 28.0061401,10.7462547 28.0518892,10.7402104 C28.2648084,10.7120798 28.4784998,10.6847549 28.6929958,10.6582317 C28.7752551,10.64806 28.8575951,10.6380108 28.9400532,10.6280794 C29.0752417,10.6117973 29.2105337,10.5958566 29.3461423,10.5802314 C29.4878605,10.5639016 29.6302862,10.5478768 29.7730596,10.5321984 C29.9579644,10.5118931 30.143577,10.492156 30.3297735,10.4730007 C30.3867077,10.4671437 30.4434453,10.4613664 30.500237,10.455643 C30.5769233,10.4479145 30.6538898,10.4402665 30.7309555,10.4327173 L31.2748728,10.3812267 L31.2748728,10.3812267 Z M40,16.3157895 L40,63.6842105 L40,63.6842105 C54.2301907,63.6842105 62.2456375,50.9920086 63.3067527,22.2854837 C63.358207,20.8934822 62.4373916,19.6340469 61.131161,19.2140832 L59.7777809,18.7992958 C54.128898,17.1534737 47.5378428,16.3157895 40,16.3157895 Z" id="Shield"></path>
            </g>
            <path d="M12,0 L138,0 C144.627417,-1.21743675e-15 150,5.372583 150,12 L150,20 L150,20 L0,20 L0,12 C-8.11624501e-16,5.372583 5.372583,1.21743675e-15 12,0 Z" id="Top---Primary-Color" fill="#80CFFE"></path>
        </g>
        <g id="2.-Icons/CheckboxCheck" transform="translate(189.000000, 102.000000)" fill="#009FFD">
            <path d="M55,13.75 C71.2000595,13.75 77.502995,23.2212424 77.89683,42.9374873 C85.4706046,42.9704703 91.5907009,48.9377958 91.6037485,56.2973756 L91.6508622,82.8485445 C91.6639196,90.2372078 85.5184631,96.2372349 77.9166667,96.25 L32.0833333,96.25 C24.489418,96.25 18.3333333,90.260296 18.3333333,82.8716216 L18.3333333,56.1492237 C18.3333333,49.0244305 24.0575498,43.2004657 31.2833169,42.7935633 L32.1068028,42.7635847 C32.53421,23.1655466 38.8476431,13.75 55,13.75 Z M55,60.5743243 C49.9373898,60.5743243 45.8333333,64.5674603 45.8333333,69.4932432 C45.8333333,74.4190261 49.9373898,78.4121622 55,78.4121622 C60.0626102,78.4121622 64.1666667,74.4190261 64.1666667,69.4932432 C64.1666667,64.5674603 60.0626102,60.5743243 55,60.5743243 Z M55,24.8986486 C47.6947608,24.8986486 43.9359077,29.8401554 43.571099,42.8034887 L66.4312831,42.8900399 C66.0807827,29.8621447 62.3214749,24.8986486 55,24.8986486 Z" id="Lock"></path>
        </g>
    </g>
</svg>