<?xml version="1.0" encoding="UTF-8"?>
<svg width="315px" height="227px" viewBox="0 0 315 227" version="1.1" xmlns="http://www.w3.org/2000/svg" xmlns:xlink="http://www.w3.org/1999/xlink">
    <title>4.1. Illustrations/Interface-app/SL Club/NotFound-User</title>
    <g id="4.1.-Illustrations/Interface-app/SL-Club/NotFound-User" stroke="none" stroke-width="1" fill="none" fill-rule="evenodd">
        <g id="4.2.-IllustrationParts/Non-objects/Cloud-1" transform="translate(23.582051, 57.000000)" fill="#DFF3FE">
            <path d="M17.1601323,73 C7.62807641,72.6944721 0,65.5211443 0,56.7153846 C0,47.7216399 7.95724055,40.4307692 17.7729942,40.4307692 C19.7036336,40.4307692 21.5623744,40.7128246 23.3028107,41.2344159 L23.2925279,40.8579282 L23.2925279,40.8579282 L23.288751,40.4307692 C23.288751,26.1648293 35.9105809,14.6 51.480397,14.6 C59.9922437,14.6 67.6230291,18.0563669 72.7921607,23.5208729 C76.8488868,13.0851308 87.7270616,5.61538462 100.509347,5.61538462 C112.388624,5.61538462 122.62332,12.0670061 127.267484,21.3547459 C133.51982,19.8999872 140.43176,19.0923077 147.699711,19.0923077 C160.384174,19.0923077 171.984256,21.5524451 180.893293,25.6213772 C185.8132,22.2270901 191.933821,20.2153846 198.567246,20.2153846 C214.81401,20.2153846 227.984615,32.2830326 227.984615,47.1692308 C227.984615,62.0554289 214.81401,74.1230769 198.567246,74.1230769 C195.637694,74.1230769 192.808159,73.730711 190.137824,73.0002045 L17.1601323,73 Z" id="4.-Illustratie/Non-objects/Cloud"></path>
        </g>
        <path d="M233.93517,194.137255 L235.158202,194.145708 L236.370978,194.162488 L237.572887,194.187466 L239.354033,194.240015 L240.526092,194.284913 L241.685139,194.33755 L242.83056,194.397796 L244.521805,194.502147 L245.630483,194.580844 L246.723392,194.666693 L247.799919,194.759563 L248.85945,194.859323 L250.415542,195.021596 L251.429905,195.138011 L252.425129,195.260858 L253.880738,195.456906 L254.825433,195.595264 L256.202376,195.813965 L257.529361,196.045671 L259.011613,196.331843 L260.02519,196.546333 L260.80803,196.723778 L261.565296,196.906284 L262.296376,197.093721 L263.000658,197.285957 L263.677529,197.482863 L264.005493,197.583026 L264.640098,197.78669 L264.946585,197.890159 L265.680644,198.153474 L266.367804,198.423217 L266.88296,198.643468 C267.132741,198.754559 267.370749,198.867083 267.59664,198.980966 L268.032162,199.210522 C269.63895,200.097265 270.52,201.061006 270.52,202.068628 C270.52,203.076249 269.63895,204.039991 268.032162,204.926734 L267.59664,205.156289 C267.370749,205.270172 267.132741,205.382696 266.88296,205.493787 L266.367804,205.714038 L265.821866,205.930339 L265.097091,206.194959 L264.326375,206.452948 C264.220603,206.486893 264.113638,206.520654 264.005493,206.554229 L263.000658,206.851298 L262.296376,207.043535 L261.565296,207.230971 L260.80803,207.413478 L260.02519,207.590923 L258.804322,207.847315 L257.529361,208.091584 L256.202376,208.32329 L255.289837,208.470563 L254.355708,208.611926 L252.915372,208.812602 L251.929948,208.938617 L250.925078,209.058264 L249.901374,209.171413 L248.85945,209.277933 L247.799919,209.377693 L246.178947,209.514373 L245.078077,209.596662 L243.961744,209.671734 L242.83056,209.739459 L241.685139,209.799705 L240.526092,209.852343 L239.354033,209.897241 L238.169575,209.934268 L236.370978,209.974767 L235.158202,209.991547 L233.93517,210 L232.70483,210 L231.493979,209.991673 L229.696722,209.963917 L227.924073,209.918221 L226.756969,209.878003 L225.602288,209.830128 L224.460625,209.774724 L223.332573,209.711918 L222.218728,209.641836 L220.575899,209.523348 L219.500172,209.435632 L217.917306,209.291286 L216.883412,209.186728 L215.867292,209.075654 L214.86954,208.958191 L213.890751,208.834468 L212.93152,208.704609 L211.99244,208.568743 L211.074107,208.426996 L210.177114,208.279494 L209.302057,208.126364 L208.44953,207.967734 L207.620127,207.803729 L206.814443,207.634478 L206.033073,207.460105 L205.276611,207.280739 L204.545652,207.096506 L203.840789,206.907533 L203.162618,206.713947 L202.196709,206.415194 L201.587868,206.210628 L201.0078,206.001893 C200.819305,205.931634 200.635705,205.860701 200.457098,205.789115 L199.936358,205.57242 L199.446174,205.351937 C197.309988,204.351424 196.12,203.239659 196.12,202.068628 C196.12,201.061006 197.00105,200.097265 198.607838,199.210522 L199.04336,198.980966 C199.269251,198.867083 199.507259,198.754559 199.75704,198.643468 L200.272196,198.423217 L200.818134,198.206917 L201.542909,197.942296 L202.313625,197.684307 C202.419397,197.650362 202.526362,197.616601 202.634507,197.583026 L203.639342,197.285957 L204.343624,197.093721 L205.074704,196.906284 L205.83197,196.723778 L206.61481,196.546333 L207.628387,196.331843 L208.679769,196.12572 L209.110639,196.045671 L210.437624,195.813965 L211.350163,195.666692 L212.284292,195.52533 L213.724628,195.324654 L214.710052,195.198639 L215.714922,195.078991 L216.738626,194.965843 L217.78055,194.859323 L218.840081,194.759563 L220.461053,194.622883 L221.561923,194.540593 L222.678256,194.465521 L223.80944,194.397796 L224.954861,194.33755 L226.113908,194.284913 L227.285967,194.240015 L228.470425,194.202987 L230.269022,194.162488 L231.481798,194.145708 L232.70483,194.137255 L233.93517,194.137255 Z M146.4,169.8 C199.087965,169.8 241.8,174.635325 241.8,180.6 C241.8,186.564675 199.087965,191.4 146.4,191.4 C93.7120349,191.4 51,186.564675 51,180.6 C51,174.635325 93.7120349,169.8 146.4,169.8 Z" id="Shadows" fill="#002451" opacity="0.0352725074"></path>
        <g id="List" transform="translate(70.000000, 27.000000)">
            <rect id="Base" fill="#EFF9FE" x="0" y="0" width="150" height="154" rx="12"></rect>
            <path d="M101.2,124 C103.409139,124 105.2,125.790861 105.2,128 C105.2,130.209139 103.409139,132 101.2,132 L61.2,132 C58.990861,132 57.2,130.209139 57.2,128 C57.2,125.790861 58.990861,124 61.2,124 L101.2,124 Z M106.2,108 C108.409139,108 110.2,109.790861 110.2,112 C110.2,114.209139 108.409139,116 106.2,116 L61.2,116 C58.990861,116 57.2,114.209139 57.2,112 C57.2,109.790861 58.990861,108 61.2,108 L106.2,108 Z M115.2,80 C117.409139,80 119.2,81.790861 119.2,84 C119.2,86.209139 117.409139,88 115.2,88 L61.2,88 C58.990861,88 57.2,86.209139 57.2,84 C57.2,81.790861 58.990861,80 61.2,80 L115.2,80 Z M124.2,64 C126.409139,64 128.2,65.790861 128.2,68 C128.2,70.209139 126.409139,72 124.2,72 L61.2,72 C58.990861,72 57.2,70.209139 57.2,68 C57.2,65.790861 58.990861,64 61.2,64 L124.2,64 Z M131.2,36 C133.409139,36 135.2,37.790861 135.2,40 C135.2,42.209139 133.409139,44 131.2,44 L61.2,44 C58.990861,44 57.2,42.209139 57.2,40 C57.2,37.790861 58.990861,36 61.2,36 L131.2,36 Z M110.2,20 C112.409139,20 114.2,21.790861 114.2,24 C114.2,26.209139 112.409139,28 110.2,28 L61.2,28 C58.990861,28 57.2,26.209139 57.2,24 C57.2,21.790861 58.990861,20 61.2,20 L110.2,20 Z" id="Text" fill-opacity="0.302939248" fill="#80CFFE" opacity="0.504509"></path>
            <path d="M31.7,33.0524645 L33.2707086,33.0639679 C41.5390737,33.1917422 45.2,34.4246502 45.2,38.7763687 C45.2,43.5798028 39.0459379,47.004481 31.7,47.004481 C24.3540621,47.004481 18.2,43.5798028 18.2,38.7763687 C18.2,34.4246502 21.8609263,33.1917422 30.1292914,33.0639679 L31.7,33.0524645 Z M31.7,16 C35.8421356,16 39.2,19.4702947 39.2,23.7511202 C39.2,28.0319458 35.8421356,31.5022405 31.7,31.5022405 C27.5578644,31.5022405 24.2,28.0319458 24.2,23.7511202 C24.2,19.4702947 27.5578644,16 31.7,16 Z M31.7,77.0569455 L33.2707086,77.0684489 C41.5390737,77.1962232 45.2,78.4291312 45.2,82.7808497 C45.2,87.5842838 39.0459379,91.008962 31.7,91.008962 C24.3540621,91.008962 18.2,87.5842838 18.2,82.7808497 C18.2,78.4291312 21.8609263,77.1962232 30.1292914,77.0684489 L31.7,77.0569455 Z M31.7,60.004481 C35.8421356,60.004481 39.2,63.4747757 39.2,67.7556012 C39.2,72.0364268 35.8421356,75.5067215 31.7,75.5067215 C27.5578644,75.5067215 24.2,72.0364268 24.2,67.7556012 C24.2,63.4747757 27.5578644,60.004481 31.7,60.004481 Z M31.7,121.061427 L33.2707086,121.07293 C41.5390737,121.200704 45.2,122.433612 45.2,126.785331 C45.2,131.588765 39.0459379,135.013443 31.7,135.013443 C24.3540621,135.013443 18.2,131.588765 18.2,126.785331 C18.2,122.433612 21.8609263,121.200704 30.1292914,121.07293 L31.7,121.061427 Z M31.7,104.008962 C35.8421356,104.008962 39.2,107.479257 39.2,111.760082 C39.2,116.040908 35.8421356,119.511202 31.7,119.511202 C27.5578644,119.511202 24.2,116.040908 24.2,111.760082 C24.2,107.479257 27.5578644,104.008962 31.7,104.008962 Z" id="Users---Primary-Color" fill="#009FFD"></path>
            <g id="Opacity-Filter" transform="translate(11.200000, 14.000000)" fill="#EFF9FE">
                <rect id="Opacity-0%" opacity="0" x="0" y="0" width="40" height="40"></rect>
                <rect id="Opacity-25%" opacity="0.251302083" x="0" y="45" width="40" height="40"></rect>
                <rect id="Opacity-50%" opacity="0.497744606" x="0" y="87" width="40" height="40"></rect>
            </g>
        </g>
        <g id="RoundQuestion" transform="translate(179.000000, 103.000000)">
            <path d="M55,13 C78.1959595,13 97,31.8040405 97,55 C97,78.1959595 78.1959595,97 55,97 C31.8040405,97 13,78.1959595 13,55 C13,31.8040405 31.8040405,13 55,13 Z" id="Ball" fill="#FFFFFF"></path>
            <g id="2.-Icons/CheckboxCheck" fill="#EB6500">
                <path d="M55,9.16666667 C80.313051,9.16666667 100.833333,29.686949 100.833333,55 C100.833333,80.313051 80.313051,100.833333 55,100.833333 C29.686949,100.833333 9.16666667,80.313051 9.16666667,55 C9.16666667,29.686949 29.686949,9.16666667 55,9.16666667 Z M55,18.3333333 C34.7495592,18.3333333 18.3333333,34.7495592 18.3333333,55 C18.3333333,75.2504408 34.7495592,91.6666667 55,91.6666667 C75.2504408,91.6666667 91.6666667,75.2504408 91.6666667,55 C91.6666667,34.7495592 75.2504408,18.3333333 55,18.3333333 Z M55,71.0416667 C57.5313051,71.0416667 59.5833333,73.0936949 59.5833333,75.625 C59.5833333,78.1563051 57.5313051,80.2083333 55,80.2083333 C52.4686949,80.2083333 50.4166667,78.1563051 50.4166667,75.625 C50.4166667,73.0936949 52.4686949,71.0416667 55,71.0416667 Z M55,27.5 C64.4063051,27.5 71.0416667,34.1353616 71.0416667,43.5416667 C71.0416667,49.3746714 67.9276652,53.7342735 63.0872722,56.6385092 C61.8869557,57.3586991 60.6995851,57.9309511 59.5833333,58.3774014 L59.5833333,58.3774014 L59.5833333,61.875 C59.5833333,64.4063051 57.5313051,66.4583333 55,66.4583333 C52.4686949,66.4583333 50.4166667,64.4063051 50.4166667,61.875 L50.4166667,61.875 L50.4166667,55 C50.4166667,52.815212 51.9587735,50.9341441 54.1011344,50.5056719 C55.0631768,50.3132634 56.749269,49.7512327 58.3710611,48.7781574 C60.6921265,47.3855182 61.875,45.7294953 61.875,43.5416667 C61.875,39.1979718 59.3436949,36.6666667 55,36.6666667 C52.8235145,36.6666667 50.8498276,37.3245623 49.3567167,38.3910701 C48.796674,38.7911006 48.3637937,39.2114259 48.0874742,39.5843791 L48.0874742,39.5843791 L47.9642368,40.1659596 C47.4342701,42.1113531 45.6550022,43.5416667 43.5416667,43.5416667 C41.0103616,43.5416667 38.9583333,41.4896384 38.9583333,38.9583333 C38.9583333,33.0852716 46.7777136,27.5 55,27.5 Z" id="RoundIcon"></path>
            </g>
        </g>
    </g>
</svg>